<svg width="123" height="30" viewBox="0 0 123 30" fill="none" xmlns="http://www.w3.org/2000/svg">
<path d="M4.81436 8.29374C6.09184 6.98878 7.72684 6.12034 9.49817 5.80591C11.2695 5.49148 13.0916 5.74624 14.7181 6.53572L15.8734 4.15071C13.6268 3.04645 11.0913 2.73346 8.65576 3.25978C6.22025 3.78609 4.01929 5.12263 2.39054 7.06436C2.24471 7.23782 2.12978 7.43656 2.05109 7.65139C2.27098 7.60845 2.49429 7.58684 2.71808 7.58685C3.4721 7.58504 4.20682 7.83279 4.81436 8.29374Z" fill="url(#paint0_linear_194_6171)"/>
<path d="M7.43766 21.5616L7.70268 21.0145L7.89622 20.6119L7.96769 20.4675L8.2327 19.9235L8.49771 19.3764L8.54833 19.2657L8.76273 18.8293L9.02774 18.2822L9.10814 18.1193L9.0456 17.9933L5.18953 10.0238L5.17166 9.99003C4.9462 9.52067 4.59808 9.12573 4.16661 8.84983C3.73514 8.57394 3.23753 8.42807 2.72997 8.42871C2.46317 8.42959 2.19772 8.46784 1.94089 8.54243C1.77812 8.59114 1.61891 8.65173 1.46446 8.72377C0.979268 8.95723 0.583236 9.35086 0.338905 9.8425C0.127549 10.2463 0.0117098 10.696 0.000842395 11.1548C-0.010025 11.6136 0.0843878 12.0686 0.276374 12.4826L0.318061 12.5656L4.97513 22.1825L5.06446 22.3638L5.15082 22.5451L5.24015 22.7295L5.32948 22.9109L5.41583 23.0922L5.50516 23.2735L5.59151 23.4579L5.68084 23.6393L5.77017 23.8206L5.85652 24.0019L5.94585 24.1833L6.03221 24.3677L6.05603 24.4138C6.07389 24.3738 6.08878 24.3369 6.10665 24.3001V24.2816L6.1394 24.214L6.37166 23.7346L6.63667 23.1905L6.90168 22.6435L7.16372 22.0964L7.43766 21.5616Z" fill="url(#paint1_linear_194_6171)"/>
<path d="M23.3533 2.8076C23.3117 2.68339 23.2619 2.56222 23.2044 2.44493C23.1605 2.35416 23.1118 2.26592 23.0585 2.18062C23.0109 2.10685 22.9632 2.03616 22.9096 1.96855C22.8642 1.90737 22.8155 1.84888 22.7637 1.79336C22.7161 1.74111 22.6655 1.69194 22.6148 1.64276L22.4689 1.5106L22.3201 1.39688L22.1742 1.30161C22.1235 1.27087 22.0759 1.24014 22.0253 1.21555C21.9771 1.18789 21.9274 1.16325 21.8764 1.14179L21.7305 1.08032C21.6799 1.06188 21.6322 1.04036 21.5816 1.025L21.4357 0.98504L21.2868 0.948158L21.1409 0.926644L20.992 0.908203H20.8461H20.6972C20.6496 0.908203 20.599 0.908203 20.5513 0.908203H20.4024L20.2565 0.93279L20.1076 0.966599L19.9588 1.00963L19.8129 1.06188L19.664 1.12335L19.5181 1.19711L19.3692 1.28317C19.3188 1.31306 19.2701 1.3459 19.2233 1.38152C19.1727 1.41532 19.122 1.45528 19.0744 1.49216L18.9285 1.62432C18.8779 1.67042 18.8273 1.72267 18.7796 1.77492C18.7278 1.83044 18.6791 1.88893 18.6337 1.95011C18.5801 2.01772 18.5325 2.08841 18.4848 2.16218C18.4316 2.24748 18.3829 2.33572 18.3389 2.42649V2.44186L18.321 2.47567L18.199 2.72769L18.0531 3.03504L17.9042 3.34239L17.7553 3.64973L17.6094 3.95708L17.4605 4.26443L17.3146 4.57177L17.1657 4.87912V4.89756L17.0287 5.18339L16.8799 5.49074L16.734 5.79808L16.5851 6.10543L16.4392 6.41278L16.2903 6.72012L16.1444 7.02747L16.0014 7.33482L15.8555 7.64216L15.7067 7.94951L15.5578 8.25686L15.4119 8.5642L15.263 8.87155L15.1171 9.17889L14.9682 9.48624L14.8223 9.79359L14.6734 10.1009L14.5275 10.4083L14.3786 10.7156L14.2327 11.023L14.0838 11.3303L13.9379 11.6377L13.789 11.945L13.6431 12.2524L13.4942 12.5597L13.3454 12.8671L13.1995 13.1744L13.0506 13.4817L12.9047 13.7891L12.7558 14.0964L12.6099 14.4038L12.461 14.7111L12.3151 15.0185L12.1662 15.3258L12.0203 15.6332L11.8714 15.9405L11.7255 16.2479L11.5766 16.5552L11.4307 16.8626L11.2818 17.1699L11.133 17.4772L10.9871 17.7846L10.8382 18.0919L10.6923 18.3993L10.5434 18.7066L10.3975 19.014L10.2873 19.2414L10.2545 19.309L10.1712 19.4811L10.1086 19.6133L9.95976 19.9206V19.9483L9.89723 20.0743L9.82576 20.2249L9.70665 20.4677L9.67688 20.5292L9.53097 20.8365L9.44164 21.0179L9.38209 21.1408L9.23618 21.4482L9.17961 21.565L9.14685 21.6295L9.0873 21.7555L8.93842 22.0629L8.91459 22.1151L8.79251 22.3671L8.64958 22.6745L8.50368 22.9818L8.39053 23.2123L8.35479 23.2861L8.20889 23.5934L8.12551 23.7625L8.06 23.8977L7.9141 24.2051L7.8605 24.3126L7.76522 24.5093L7.61931 24.8167L7.59847 24.8597L7.50318 25.0564L7.47043 25.121V25.1394C7.43187 25.217 7.39806 25.2971 7.36919 25.3791C7.35549 25.4133 7.34357 25.4482 7.33345 25.4836C7.30039 25.5779 7.27353 25.6745 7.25306 25.7725C7.22917 25.88 7.21127 25.9888 7.19946 26.0983C7.19946 26.1936 7.18457 26.2919 7.18457 26.3872V26.4057C7.18457 26.4886 7.18457 26.5686 7.18457 26.6485C7.18457 26.7284 7.20244 26.8114 7.21435 26.8913C7.21435 26.965 7.24115 27.0357 7.25901 27.1064C7.27688 27.1771 7.29474 27.2386 7.31857 27.3031C7.33941 27.3707 7.36621 27.4353 7.39301 27.4998C7.41981 27.5644 7.41981 27.5644 7.43469 27.5982L7.45256 27.632L7.47043 27.6658C7.5002 27.7272 7.53296 27.7856 7.56571 27.841L7.60144 27.8963C7.62229 27.9332 7.64909 27.9701 7.67291 28.0039C7.69673 28.0377 7.72055 28.0745 7.74735 28.1084L7.78904 28.1575C7.81881 28.1975 7.85157 28.2344 7.88432 28.2712V28.2897C7.92899 28.3358 7.97068 28.3819 8.01534 28.4219C8.06298 28.468 8.11063 28.5079 8.15827 28.5479C8.20591 28.5847 8.25355 28.6247 8.30417 28.6585L8.45008 28.7538H8.46794L8.59598 28.8275L8.63767 28.8491L8.74487 28.9013L8.81931 28.9351L8.89077 28.9628L9.01286 29.0058H9.03966L9.18854 29.0488H9.2213L9.33445 29.0734L9.44164 29.0919H9.48333H9.62924H9.68283H9.77812H9.9538H10.0818H10.2277L10.3617 29.0704L10.5076 29.0365H10.5612L10.6565 29.0089L10.8024 28.9566L10.9513 28.8952H10.9722L11.0972 28.8306C11.1478 28.803 11.1985 28.7753 11.2461 28.7446L11.395 28.6462L11.5409 28.5325C11.5915 28.4925 11.6421 28.4495 11.6898 28.4034C11.7374 28.3573 11.788 28.3051 11.8357 28.2528L11.8863 28.1975L11.9846 28.0776C12.0352 28.01 12.0858 27.9362 12.1305 27.8656C12.1847 27.7803 12.2344 27.6921 12.2794 27.6012V27.5674L12.3091 27.5029L12.4014 27.3154L12.5503 27.0081L12.5742 26.9527L12.6962 26.7007L12.8392 26.3934L12.9851 26.086L13.0982 25.8555L13.134 25.7817L13.1518 25.7449L13.2799 25.4775L13.3781 25.2808L13.4287 25.1732L13.5776 24.8659L13.7235 24.5585L13.8724 24.2512L14.0183 23.9438L14.1672 23.6365L14.3131 23.3291L14.462 23.0218L14.6079 22.7144L14.7568 22.4071L14.9027 22.0997L15.0516 21.7924L15.1975 21.485L15.3464 21.1777L15.4923 20.8703L15.6411 20.563L15.79 20.2557L15.9359 19.9483L16.0848 19.641L16.2307 19.3336L16.3796 19.0263L16.5255 18.7189L16.6744 18.4116L16.8203 18.1042L16.9692 17.7969L17.1151 17.4895L17.264 17.1822L17.4099 16.8748L17.5588 16.5675L17.7047 16.2602L17.8536 15.9528L18.0024 15.6455L18.1483 15.3381L18.2972 15.0308L18.4431 14.7234L18.592 14.4161L18.7379 14.1087L18.8868 13.8014L19.0327 13.494L19.1816 13.1867L19.3275 12.8793L19.4764 12.572L19.6223 12.2647L19.7712 11.9573L19.9171 11.65L20.066 11.3426L20.2148 11.0353L20.3608 10.7279L20.5096 10.4206L20.6555 10.1132L20.8044 9.80588L20.9503 9.49853L21.0992 9.19119L21.2451 8.88384L21.394 8.5765L21.5399 8.26915L21.6888 7.9618L21.8347 7.65446L21.9836 7.34711L22.1325 7.03976L22.2784 6.73242L22.4273 6.42507L22.5732 6.11772L22.722 5.81038L22.868 5.50303L23.0168 5.19569L23.1627 4.88834V4.8699C23.2173 4.75873 23.264 4.6437 23.3027 4.52567C23.4 4.23396 23.4493 3.92751 23.4486 3.619C23.4551 3.3452 23.423 3.07188 23.3533 2.8076Z" fill="url(#paint2_linear_194_6171)"/>
<path d="M37.7343 9.26025L33.2678 20.7396H31.9159L27.4494 9.26025H28.8132L32.6067 19.1138L36.3913 9.26025H37.7343Z" fill="black"/>
<path d="M40.9819 10.4638V14.3302H46.7437V15.4858H40.9819V19.5428H47.5328V20.7353H39.7343V9.26514H47.5596V10.4638H40.9819Z" fill="black"/>
<path d="M58.6563 9.26514V20.7353H57.5635L50.8221 11.561V20.7353H49.5596V9.26514H50.6524L57.3968 18.464V9.26514H58.6563Z" fill="black"/>
<path d="M69.8097 9.15283V16.0773C69.8097 17.5188 69.4048 18.6713 68.5919 19.5442C67.779 20.4171 66.6594 20.8474 65.2331 20.8474C63.8068 20.8474 62.6901 20.414 61.8742 19.5442C61.0584 18.6744 60.6564 17.5188 60.6564 16.0773V9.15283H61.9427V16.0435C61.8952 16.9962 62.1996 17.932 62.7943 18.6621C63.3601 19.3106 64.176 19.6303 65.239 19.6303C66.302 19.6303 67.1149 19.3014 67.6896 18.6529C68.2905 17.9295 68.5987 16.9951 68.5502 16.0435V9.15283H69.8097Z" fill="black"/>
<path d="M73.0514 10.4638V14.3302H78.8221V15.4858H73.0514V19.5428H79.6023V20.7353H71.8097V9.26514H79.635V10.4638H73.0514Z" fill="black"/>
<path d="M86.1641 16.7276H83.7998V20.7447H81.6351V9.25913H87.0485C87.5607 9.23706 88.0716 9.32696 88.5478 9.52293C89.024 9.71891 89.4548 10.0165 89.8117 10.3963C90.4039 11.0087 90.7686 11.8165 90.8421 12.6783C90.9155 13.5402 90.6931 14.4013 90.2137 15.111C89.7782 15.7574 89.1513 16.2405 88.4271 16.4879L91.1904 20.7231H88.6773L86.1641 16.7276ZM83.782 14.7576H86.8936C87.1372 14.7681 87.3803 14.729 87.6092 14.6426C87.8381 14.5561 88.0483 14.4239 88.2276 14.2535C88.3874 14.0945 88.5148 13.9041 88.6022 13.6935C88.6897 13.483 88.7355 13.2565 88.7369 13.0274C88.7382 12.7983 88.6952 12.5712 88.6103 12.3595C88.5254 12.1478 88.4004 11.9558 88.2425 11.7947C88.0759 11.6271 87.8782 11.4961 87.6612 11.4095C87.4442 11.3228 87.2125 11.2824 86.98 11.2907H83.7998L83.782 14.7576Z" fill="black"/>
<path d="M93.1904 9.26514H95.3999V20.7353H93.1904V9.26514Z" fill="black"/>
<path d="M99.5765 11.3151V14.1704H104.674V16.1897H99.5765V20.7353H97.3998V9.26514H105.487V11.3151H99.5765Z" fill="black"/>
<path d="M107.487 9.26514H109.697V20.7353H107.487V9.26514Z" fill="black"/>
<path d="M117.532 20.9649C116.763 20.9871 115.997 20.8478 115.282 20.5552C114.567 20.2627 113.916 19.823 113.371 19.263C112.825 18.703 112.396 18.0344 112.108 17.2977C111.821 16.561 111.681 15.7717 111.699 14.9777C111.678 14.1904 111.816 13.4073 112.101 12.6771C112.387 11.9469 112.816 11.2852 113.36 10.7333C113.903 10.1749 114.55 9.73656 115.262 9.44487C115.974 9.15318 116.736 9.01431 117.502 9.03674C118.764 8.99151 120.006 9.38073 121.031 10.1432C121.911 10.7812 122.562 11.7019 122.883 12.7618L120.751 13.2966C120.539 12.6648 120.129 12.1241 119.586 11.7598C118.971 11.3348 118.242 11.1198 117.502 11.1451C117.017 11.1231 116.533 11.2101 116.084 11.4C115.634 11.59 115.23 11.8785 114.9 12.2454C114.241 12.9834 113.884 13.956 113.905 14.9593C113.884 15.9738 114.243 16.9576 114.905 17.707C115.231 18.08 115.631 18.3751 116.079 18.5715C116.526 18.768 117.01 18.861 117.496 18.8442C118.235 18.8634 118.963 18.6489 119.58 18.2295C120.126 17.8774 120.542 17.3458 120.76 16.7204L122.868 17.2798C122.559 18.3326 121.915 19.2468 121.039 19.8738C120.026 20.6227 118.801 21.0051 117.556 20.9618L117.532 20.9649Z" fill="black"/>
<defs>
<linearGradient id="paint0_linear_194_6171" x1="2.05109" y1="5.65364" x2="15.8734" y2="5.65364" gradientUnits="userSpaceOnUse">
<stop offset="0.38" stop-color="#6920F1"/>
<stop offset="0.82" stop-color="#EF307F"/>
</linearGradient>
<linearGradient id="paint1_linear_194_6171" x1="-5.44373" y1="-2.79557" x2="12.0936" y2="26.9752" gradientUnits="userSpaceOnUse">
<stop offset="0.56" stop-color="#681AF3"/>
<stop offset="0.86" stop-color="#9A4DF3"/>
</linearGradient>
<linearGradient id="paint2_linear_194_6171" x1="8.35479" y1="29.7189" x2="23.9317" y2="-1.19233" gradientUnits="userSpaceOnUse">
<stop stop-color="#FF9B60"/>
<stop offset="1" stop-color="#DC2276"/>
</linearGradient>
</defs>
</svg>
