<svg xmlns="http://www.w3.org/2000/svg" xmlns:xlink="http://www.w3.org/1999/xlink" version="1.1" width="256" height="256" viewBox="0 0 256 256" xml:space="preserve">

<defs>
</defs>
<g style="stroke: none; stroke-width: 0; stroke-dasharray: none; stroke-linecap: butt; stroke-linejoin: miter; stroke-miterlimit: 10; fill: none; fill-rule: nonzero; opacity: 1;" transform="translate(1.4065934065934016 1.4065934065934016) scale(2.81 2.81)" >
	<path d="M 45 90 C 20.147 90 0 69.853 0 45 h 90 C 90 69.853 69.853 90 45 90 z" style="stroke: none; stroke-width: 1; stroke-dasharray: none; stroke-linecap: butt; stroke-linejoin: miter; stroke-miterlimit: 10; fill: rgb(206,17,38); fill-rule: nonzero; opacity: 1;" transform=" matrix(1 0 0 1 0 0) " stroke-linecap="round" />
	<path d="M 45 0 C 20.147 0 0 20.147 0 45 h 90 C 90 20.147 69.853 0 45 0 z" style="stroke: none; stroke-width: 1; stroke-dasharray: none; stroke-linecap: butt; stroke-linejoin: miter; stroke-miterlimit: 10; fill: rgb(0,56,168); fill-rule: nonzero; opacity: 1;" transform=" matrix(1 0 0 1 0 0) " stroke-linecap="round" />
	<path d="M 16.31 10.333 C 6.348 18.587 0 31.052 0 45 c 0 13.896 6.302 26.316 16.199 34.571 l 59.766 -34.629 L 16.31 10.333 z" style="stroke: none; stroke-width: 1; stroke-dasharray: none; stroke-linecap: butt; stroke-linejoin: miter; stroke-miterlimit: 10; fill: rgb(243,244,245); fill-rule: nonzero; opacity: 1;" transform=" matrix(1 0 0 1 0 0) " stroke-linecap="round" />
	<path d="M 39.024 44.525 c -0.009 -0.14 -0.022 -0.278 -0.039 -0.416 l 5.828 -0.765 l -0.693 -0.693 l -5.2 1.035 c -0.168 -0.85 -0.502 -1.64 -0.967 -2.335 l 4.408 -2.945 v -0.98 l -4.662 3.581 c -0.085 -0.11 -0.173 -0.218 -0.265 -0.323 l 4.806 -4.21 v -1.2 h -1.2 l -4.21 4.806 c -0.105 -0.092 -0.212 -0.18 -0.323 -0.265 l 3.581 -4.662 h -0.98 l -2.945 4.408 c -0.695 -0.465 -1.485 -0.799 -2.335 -0.967 l 1.035 -5.2 l -0.693 -0.693 l -0.765 5.828 c -0.137 -0.018 -0.276 -0.03 -0.416 -0.039 l 0.421 -6.376 l -0.849 -0.849 l -0.849 0.849 l 0.421 6.376 c -0.14 0.009 -0.278 0.022 -0.416 0.039 l -0.765 -5.828 l -0.693 0.693 l 1.035 5.2 c -0.85 0.168 -1.64 0.502 -2.335 0.967 l -2.945 -4.408 h -0.98 l 3.581 4.662 c -0.111 0.085 -0.218 0.173 -0.323 0.265 l -4.21 -4.806 h -1.2 v 1.2 l 4.806 4.21 c -0.092 0.105 -0.18 0.212 -0.265 0.323 l -4.662 -3.581 v 0.98 l 4.408 2.945 c -0.465 0.695 -0.799 1.485 -0.967 2.335 l -5.2 -1.035 l -0.693 0.693 l 5.828 0.765 c -0.018 0.137 -0.03 0.276 -0.039 0.416 l -6.376 -0.421 l -0.849 0.849 l 0.849 0.849 l 6.376 -0.421 c 0.009 0.14 0.021 0.278 0.039 0.416 l -5.828 0.765 l 0.693 0.693 l 5.2 -1.035 c 0.168 0.85 0.502 1.64 0.967 2.335 l -4.408 2.945 v 0.98 l 4.662 -3.581 c 0.085 0.111 0.173 0.218 0.265 0.323 l -4.806 4.21 v 1.2 h 1.2 l 4.21 -4.806 c 0.105 0.092 0.212 0.18 0.323 0.265 l -3.581 4.662 h 0.98 l 2.945 -4.409 c 0.695 0.465 1.485 0.799 2.335 0.967 l -1.035 5.2 l 0.693 0.693 l 0.765 -5.828 c 0.137 0.018 0.276 0.03 0.416 0.039 l -0.421 6.376 l 0.849 0.849 l 0.849 -0.849 l -0.421 -6.376 c 0.14 -0.009 0.278 -0.021 0.416 -0.039 l 0.765 5.828 l 0.693 -0.693 l -1.035 -5.2 c 0.85 -0.168 1.64 -0.502 2.335 -0.967 l 2.945 4.409 h 0.98 l -3.581 -4.662 c 0.111 -0.085 0.218 -0.173 0.323 -0.265 l 4.21 4.806 h 1.2 v -1.2 l -4.806 -4.21 c 0.092 -0.105 0.18 -0.212 0.265 -0.323 l 4.662 3.581 v -0.98 l -4.408 -2.945 c 0.465 -0.695 0.799 -1.485 0.967 -2.335 l 5.2 1.035 l 0.693 -0.693 l -5.828 -0.765 c 0.018 -0.137 0.03 -0.276 0.039 -0.416 L 45.4 45.8 l 0.849 -0.849 L 45.4 44.103 L 39.024 44.525 z" style="stroke: none; stroke-width: 1; stroke-dasharray: none; stroke-linecap: butt; stroke-linejoin: miter; stroke-miterlimit: 10; fill: rgb(252,209,22); fill-rule: nonzero; opacity: 1;" transform=" matrix(1 0 0 1 0 0) " stroke-linecap="round" />
	<polygon points="59.62,44.1 59.56,41.53 58.01,43.58 55.54,42.84 57.01,44.95 55.54,47.07 58.01,46.32 59.56,48.38 59.62,45.8 62.05,44.95 " style="stroke: none; stroke-width: 1; stroke-dasharray: none; stroke-linecap: butt; stroke-linejoin: miter; stroke-miterlimit: 10; fill: rgb(252,209,22); fill-rule: nonzero; opacity: 1;" transform="  matrix(1 0 0 1 0 0) "/>
	<polygon points="18.16,67.39 17.06,65.05 16.47,67.56 13.91,67.88 16.12,69.22 15.63,71.75 17.59,70.07 19.85,71.31 18.84,68.93 20.73,67.17 " style="stroke: none; stroke-width: 1; stroke-dasharray: none; stroke-linecap: butt; stroke-linejoin: miter; stroke-miterlimit: 10; fill: rgb(252,209,22); fill-rule: nonzero; opacity: 1;" transform="  matrix(1 0 0 1 0 0) "/>
	<polygon points="16.47,22.34 17.06,24.85 18.16,22.52 20.73,22.74 18.84,20.97 19.85,18.59 17.59,19.84 15.63,18.15 16.12,20.68 13.91,22.02 " style="stroke: none; stroke-width: 1; stroke-dasharray: none; stroke-linecap: butt; stroke-linejoin: miter; stroke-miterlimit: 10; fill: rgb(252,209,22); fill-rule: nonzero; opacity: 1;" transform="  matrix(1 0 0 1 0 0) "/>
</g>
</svg>