<svg width="29" height="28" viewBox="0 0 29 28" fill="none" xmlns="http://www.w3.org/2000/svg">
<path d="M26.2676 13.2188H25.4863V2.96484H26.2676C26.6721 2.96484 27 2.63691 27 2.23242C27 1.82793 26.6721 1.5 26.2676 1.5H2.73242C2.32793 1.5 2 1.82793 2 2.23242C2 2.63691 2.32793 2.96484 2.73242 2.96484H3.51367V13.2188H2.73242C2.32793 13.2188 2 13.5467 2 13.9512C2 14.3557 2.32793 14.6836 2.73242 14.6836H26.2676C26.6721 14.6836 27 14.3557 27 13.9512C27 13.5467 26.6721 13.2188 26.2676 13.2188ZM21.0918 13.2188H16.6973V12.4863C16.6973 11.2748 17.683 10.2891 18.8945 10.2891C20.1061 10.2891 21.0918 11.2748 21.0918 12.4863V13.2188ZM17.6738 7.60352C17.6738 6.93042 18.2214 6.38281 18.8945 6.38281C19.5676 6.38281 20.1152 6.93042 20.1152 7.60352C20.1152 8.27661 19.5676 8.82422 18.8945 8.82422C18.2214 8.82422 17.6738 8.27661 17.6738 7.60352ZM24.0215 13.2188H22.5566V12.4863C22.5566 11.1981 21.8875 10.064 20.879 9.41099C21.3143 8.9335 21.5801 8.29897 21.5801 7.60352C21.5801 6.1227 20.3753 4.91797 18.8945 4.91797C17.4137 4.91797 16.209 6.1227 16.209 7.60352C16.209 8.29897 16.4748 8.9335 16.9101 9.41099C15.9016 10.064 15.2324 11.1981 15.2324 12.4863V13.2188H4.97852V2.96484H24.0215V13.2188Z" fill="#98A2B3"/>
<path d="M24.7539 20.0547H24.6074V18.3457C24.6074 17.1341 23.6217 16.1484 22.4102 16.1484H20.6523C20.09 16.1484 19.5766 16.361 19.1875 16.7097C18.7984 16.361 18.285 16.1484 17.7227 16.1484H15.9648C15.4025 16.1484 14.8891 16.361 14.5 16.7097C14.1109 16.361 13.5975 16.1484 13.0352 16.1484H11.2773C10.715 16.1484 10.2016 16.361 9.8125 16.7097C9.42344 16.361 8.91001 16.1484 8.34766 16.1484H6.58984C5.37827 16.1484 4.39258 17.1341 4.39258 18.3457V20.0547H4.24609C3.03452 20.0547 2.04883 21.0404 2.04883 22.252V25.7676C2.04883 26.1721 2.37676 26.5 2.78125 26.5H26.2188C26.6232 26.5 26.9512 26.1721 26.9512 25.7676V22.252C26.9512 21.0404 25.9655 20.0547 24.7539 20.0547ZM6.73633 25.0352H3.51367V22.252C3.51367 21.8481 3.84224 21.5195 4.24609 21.5195H6.00391C6.40776 21.5195 6.73633 21.8481 6.73633 22.252V25.0352ZM6.00391 20.0547H5.85742V18.3457C5.85742 17.9418 6.18599 17.6133 6.58984 17.6133H8.34766C8.75151 17.6133 9.08008 17.9418 9.08008 18.3457V20.0547H8.93359C8.37124 20.0547 7.85781 20.2673 7.46875 20.616C7.07969 20.2673 6.56626 20.0547 6.00391 20.0547ZM11.4238 25.0352H8.20117V22.252C8.20117 21.8481 8.52974 21.5195 8.93359 21.5195H10.6914C11.0953 21.5195 11.4238 21.8481 11.4238 22.252V25.0352ZM10.6914 20.0547H10.5449V18.3457C10.5449 17.9418 10.8735 17.6133 11.2773 17.6133H13.0352C13.439 17.6133 13.7676 17.9418 13.7676 18.3457V20.0547H13.6211C13.0587 20.0547 12.5453 20.2673 12.1562 20.616C11.7672 20.2673 11.2538 20.0547 10.6914 20.0547ZM16.1113 25.0352H12.8887V22.252C12.8887 21.8481 13.2172 21.5195 13.6211 21.5195H15.3789C15.7828 21.5195 16.1113 21.8481 16.1113 22.252V25.0352ZM15.3789 20.0547H15.2324V18.3457C15.2324 17.9418 15.561 17.6133 15.9648 17.6133H17.7227C18.1265 17.6133 18.4551 17.9418 18.4551 18.3457V20.0547H18.3086C17.7462 20.0547 17.2328 20.2673 16.8438 20.616C16.4547 20.2673 15.9413 20.0547 15.3789 20.0547ZM20.7988 25.0352H17.5762V22.252C17.5762 21.8481 17.9047 21.5195 18.3086 21.5195H20.0664C20.4703 21.5195 20.7988 21.8481 20.7988 22.252V25.0352ZM20.0664 20.0547H19.9199V18.3457C19.9199 17.9418 20.2485 17.6133 20.6523 17.6133H22.4102C22.814 17.6133 23.1426 17.9418 23.1426 18.3457V20.0547H22.9961C22.4337 20.0547 21.9203 20.2673 21.5312 20.616C21.1422 20.2673 20.6288 20.0547 20.0664 20.0547ZM25.4863 25.0352H22.2637V22.252C22.2637 21.8481 22.5922 21.5195 22.9961 21.5195H24.7539C25.1578 21.5195 25.4863 21.8481 25.4863 22.252V25.0352Z" fill="#98A2B3"/>
<path d="M7.17578 5.89453H9.61719C10.0217 5.89453 10.3496 5.5666 10.3496 5.16211C10.3496 4.75762 10.0217 4.42969 9.61719 4.42969H7.17578C6.77129 4.42969 6.44336 4.75762 6.44336 5.16211C6.44336 5.5666 6.77129 5.89453 7.17578 5.89453Z" fill="#98A2B3"/>
<path d="M7.17578 8.82422H13.0352C13.4396 8.82422 13.7676 8.49629 13.7676 8.0918C13.7676 7.6873 13.4396 7.35938 13.0352 7.35938H7.17578C6.77129 7.35938 6.44336 7.6873 6.44336 8.0918C6.44336 8.49629 6.77129 8.82422 7.17578 8.82422Z" fill="#98A2B3"/>
<path d="M7.17578 11.7539H13.0352C13.4396 11.7539 13.7676 11.426 13.7676 11.0215C13.7676 10.617 13.4396 10.2891 13.0352 10.2891H7.17578C6.77129 10.2891 6.44336 10.617 6.44336 11.0215C6.44336 11.426 6.77129 11.7539 7.17578 11.7539Z" fill="#98A2B3"/>
</svg>
