<svg width="20" height="21" viewBox="0 0 20 21" fill="none" xmlns="http://www.w3.org/2000/svg">
<g clip-path="url(#clip0_3965_1637)">
<path d="M7.49996 7.53695H7.50829M12.5 12.5369H12.5083M13.3333 6.70361L6.66663 13.3703M18.3333 10.0369C18.3333 14.6393 14.6023 18.3703 9.99996 18.3703C5.39759 18.3703 1.66663 14.6393 1.66663 10.0369C1.66663 5.43457 5.39759 1.70361 9.99996 1.70361C14.6023 1.70361 18.3333 5.43457 18.3333 10.0369ZM7.91663 7.53695C7.91663 7.76707 7.73008 7.95361 7.49996 7.95361C7.26984 7.95361 7.08329 7.76707 7.08329 7.53695C7.08329 7.30683 7.26984 7.12028 7.49996 7.12028C7.73008 7.12028 7.91663 7.30683 7.91663 7.53695ZM12.9166 12.5369C12.9166 12.7671 12.7301 12.9536 12.5 12.9536C12.2698 12.9536 12.0833 12.7671 12.0833 12.5369C12.0833 12.3068 12.2698 12.1203 12.5 12.1203C12.7301 12.1203 12.9166 12.3068 12.9166 12.5369Z" stroke="#BA24D5" stroke-width="1.5" stroke-linecap="round" stroke-linejoin="round"/>
</g>
<defs>
<clipPath id="clip0_3965_1637">
<rect width="20" height="20" fill="white" transform="translate(0 0.0371094)"/>
</clipPath>
</defs>
</svg>
