<svg width="20" height="21" viewBox="0 0 20 21" fill="none" xmlns="http://www.w3.org/2000/svg">
<g id="mail-02">
<path id="Icon" d="M17.9166 15.2712L12.381 10.2712M7.61905 10.2712L2.08336 15.2712M1.66666 6.10449L8.47076 10.8674C9.02174 11.253 9.29723 11.4459 9.59688 11.5206C9.86158 11.5866 10.1384 11.5866 10.4031 11.5206C10.7028 11.4459 10.9783 11.253 11.5292 10.8674L18.3333 6.10449M5.66666 16.9378H14.3333C15.7335 16.9378 16.4335 16.9378 16.9683 16.6653C17.4387 16.4257 17.8212 16.0432 18.0608 15.5728C18.3333 15.038 18.3333 14.338 18.3333 12.9378V7.60449C18.3333 6.20436 18.3333 5.5043 18.0608 4.96952C17.8212 4.49911 17.4387 4.11666 16.9683 3.87698C16.4335 3.60449 15.7335 3.60449 14.3333 3.60449H5.66666C4.26653 3.60449 3.56647 3.60449 3.03169 3.87698C2.56128 4.11666 2.17883 4.49911 1.93915 4.96952C1.66666 5.5043 1.66666 6.20436 1.66666 7.60449V12.9378C1.66666 14.338 1.66666 15.038 1.93915 15.5728C2.17883 16.0432 2.56128 16.4257 3.03169 16.6653C3.56647 16.9378 4.26653 16.9378 5.66666 16.9378Z" stroke="#344054" stroke-width="1.66667" stroke-linecap="round" stroke-linejoin="round"/>
</g>
</svg>
