<svg width="20" height="21" viewBox="0 0 20 21" fill="none" xmlns="http://www.w3.org/2000/svg">
<path d="M17.9166 15.2565L12.3809 10.2565M7.61901 10.2565L2.08332 15.2565M1.66663 6.08984L8.47073 10.8527C9.0217 11.2384 9.29719 11.4312 9.59685 11.5059C9.86154 11.5719 10.1384 11.5719 10.4031 11.5059C10.7027 11.4312 10.9782 11.2384 11.5292 10.8527L18.3333 6.08984M5.66663 16.9232H14.3333C15.7334 16.9232 16.4335 16.9232 16.9683 16.6507C17.4387 16.411 17.8211 16.0286 18.0608 15.5582C18.3333 15.0234 18.3333 14.3233 18.3333 12.9232V7.58984C18.3333 6.18971 18.3333 5.48965 18.0608 4.95487C17.8211 4.48446 17.4387 4.10201 16.9683 3.86233C16.4335 3.58984 15.7334 3.58984 14.3333 3.58984H5.66663C4.26649 3.58984 3.56643 3.58984 3.03165 3.86233C2.56124 4.10201 2.17879 4.48446 1.93911 4.95487C1.66663 5.48965 1.66663 6.18971 1.66663 7.58984V12.9232C1.66663 14.3233 1.66663 15.0234 1.93911 15.5582C2.17879 16.0286 2.56124 16.411 3.03165 16.6507C3.56643 16.9232 4.26649 16.9232 5.66663 16.9232Z" stroke="white" stroke-width="1.66667" stroke-linecap="round" stroke-linejoin="round"/>
</svg>
