<svg width="24" height="24" viewBox="0 0 24 24" fill="none" xmlns="http://www.w3.org/2000/svg">
<g clip-path="url(#clip0_615_18493)">
<path d="M18.9843 14.0967C18.817 12.8479 17.8681 11.8436 16.6476 11.5921V8.36477C16.6476 8.0563 16.3976 7.80595 16.0887 7.80595H15.676V4.91867C15.676 4.6102 15.4257 4.35986 15.1172 4.35986H13.0588V3.55882C13.0588 3.25034 12.8085 3 12.5 3C12.1915 3 11.9412 3.25034 11.9412 3.55882V4.35986H9.88277C9.5743 4.35986 9.32396 4.6102 9.32396 4.91867V7.80595H8.91126C8.60236 7.80595 8.35245 8.0563 8.35245 8.36477V11.9173C7.4395 12.5152 6.74297 13.3869 6.3526 14.3869L3.71117 13.6389C3.35457 13.5379 3 13.8055 3 14.1764V21.4412C3 21.7497 3.25034 22 3.55882 22H21.4412C21.7497 22 22 21.7497 22 21.4412V16.6725C22 15.0687 20.5595 13.8454 18.9843 14.0967ZM20.8824 20.8824C20.4531 20.8824 18.2699 20.8824 17.902 20.8824V16.6725C17.902 15.8496 18.5714 15.1823 19.3922 15.1823C20.214 15.1823 20.8824 15.8507 20.8824 16.6725V20.8824ZM15.1823 20.8824V15.3377C15.1823 15.0288 14.932 14.7789 14.6235 14.7789H14.2051V14.4932C14.2051 13.4763 15.0324 12.649 16.0493 12.649C17.012 12.649 17.8933 13.4064 17.8933 14.5393C17.2232 15.0117 16.7842 15.7919 16.7842 16.6725V20.8824C16.6174 20.8824 15.3394 20.8824 15.1823 20.8824ZM4.11763 14.9156L6.05862 15.4656C6.01238 15.7494 5.9889 16.0392 5.9889 16.3328V20.8824H4.11763V14.9156ZM7.10667 20.8824V16.3328C7.10667 14.3495 8.52451 12.4098 10.9624 12.1562V20.8824C10.526 20.8824 7.54126 20.8824 7.10667 20.8824ZM9.47008 8.92358H15.5299V11.5768C14.1432 11.823 13.0875 13.0368 13.0875 14.4932V14.7789H12.0802V11.5686C12.0802 11.2602 11.8297 11.0098 11.5214 11.0098C10.7975 11.0098 10.1056 11.1301 9.47008 11.36C9.47008 11.0881 9.47008 9.2364 9.47008 8.92358ZM10.4417 5.47749H14.5583V7.80595H10.4417V5.47749ZM12.0802 15.8965H14.0647V20.8824C13.6875 20.8824 12.4881 20.8824 12.0802 20.8824V15.8965Z" fill="#0F5DD1"/>
<path d="M19.7274 16.7222H19.0569C18.7491 16.7222 18.498 16.9721 18.498 17.281C18.498 17.5928 18.7517 17.8398 19.0569 17.8398H19.7274C20.0359 17.8398 20.2863 17.5899 20.2863 17.281C20.2863 16.9725 20.0359 16.7222 19.7274 16.7222Z" fill="#99C2FD"/>
<path d="M19.7274 18.5103H19.0569C18.7491 18.5103 18.498 18.7602 18.498 19.0692C18.498 19.3809 18.7517 19.628 19.0569 19.628H19.7274C20.0359 19.628 20.2863 19.378 20.2863 19.0692C20.2863 18.7607 20.0359 18.5103 19.7274 18.5103Z" fill="#99C2FD"/>
<path d="M13.3688 5.99902C13.1748 5.99902 11.8327 5.99902 11.6313 5.99902C11.3229 5.99902 11.0725 6.24937 11.0725 6.55784C11.0725 6.86631 11.3229 7.11665 11.6313 7.11665H13.3688C13.6773 7.11665 13.9276 6.86631 13.9276 6.55784C13.9276 6.24937 13.6773 5.99902 13.3688 5.99902Z" fill="#99C2FD"/>
<path d="M10.6994 9.34277H10.3764C10.068 9.34277 9.81763 9.59312 9.81763 9.90159C9.81763 10.2105 10.068 10.4604 10.3764 10.4604H10.6994C11.0079 10.4604 11.2582 10.2105 11.2582 9.90159C11.2582 9.59312 11.0079 9.34277 10.6994 9.34277Z" fill="#99C2FD"/>
<path d="M12.3386 10.4604H12.6613C12.97 10.4604 13.2201 10.2105 13.2201 9.90159C13.2201 9.59312 12.97 9.34277 12.6613 9.34277H12.3386C12.0298 9.34277 11.7798 9.59312 11.7798 9.90159C11.7798 10.2105 12.0298 10.4604 12.3386 10.4604Z" fill="#99C2FD"/>
<path d="M14.3005 10.4604H14.6235C14.932 10.4604 15.1823 10.2105 15.1823 9.90159C15.1823 9.59312 14.932 9.34277 14.6235 9.34277H14.3005C13.992 9.34277 13.7417 9.59312 13.7417 9.90159C13.7417 10.2105 13.992 10.4604 14.3005 10.4604Z" fill="#99C2FD"/>
<path d="M9.88279 15.3752C10.1913 15.3752 10.4417 15.1248 10.4417 14.8164C10.4417 14.6712 10.4417 14.6194 10.4417 14.5119C10.4417 14.2035 10.1913 13.9531 9.88279 13.9531C9.57446 13.9531 9.32397 14.2032 9.32397 14.5119V14.8164C9.32397 15.1273 9.57649 15.3752 9.88279 15.3752Z" fill="#99C2FD"/>
<path d="M9.88279 17.5729C10.1911 17.5729 10.4417 17.3227 10.4417 17.0141V16.7097C10.4417 16.4017 10.1914 16.1509 9.88279 16.1509C9.57519 16.1509 9.32397 16.4005 9.32397 16.7097V17.0141C9.32397 17.325 9.57649 17.5729 9.88279 17.5729Z" fill="#99C2FD"/>
<path d="M8.17859 17.5729C8.48706 17.5729 8.7374 17.3226 8.7374 17.0141V16.7097C8.7374 16.4008 8.48634 16.1509 8.17859 16.1509C7.8707 16.1509 7.61963 16.4005 7.61963 16.7097V17.0141C7.61963 17.3232 7.87041 17.5729 8.17859 17.5729Z" fill="#99C2FD"/>
<path d="M9.88279 19.7804C10.1911 19.7804 10.4417 19.5301 10.4417 19.2216V18.9172C10.4417 18.609 10.1914 18.3584 9.88279 18.3584C9.57461 18.3584 9.32397 18.6082 9.32397 18.9172V19.2216C9.32397 19.5305 9.5749 19.7804 9.88279 19.7804Z" fill="#99C2FD"/>
<path d="M8.7374 19.2216V18.9172C8.7374 18.6086 8.48706 18.3584 8.17859 18.3584C7.8707 18.3584 7.61963 18.6079 7.61963 18.9172V19.2216C7.61963 19.5305 7.87041 19.7804 8.17859 19.7804C8.48257 19.7804 8.7374 19.534 8.7374 19.2216Z" fill="#99C2FD"/>
<path d="M16.0493 13.3687C15.7413 13.3687 15.4905 13.6186 15.4905 13.9275V14.2374C15.4905 14.5695 15.7787 14.8216 16.0887 14.7948C16.3789 14.7746 16.6081 14.5325 16.6081 14.2374V13.9275C16.6081 13.6181 16.3569 13.3687 16.0493 13.3687Z" fill="#99C2FD"/>
</g>
<defs>
<clipPath id="clip0_615_18493">
<rect width="19" height="19" fill="white" transform="translate(3 3)"/>
</clipPath>
</defs>
</svg>
