<svg width="40" height="41" viewBox="0 0 40 41" fill="none" xmlns="http://www.w3.org/2000/svg">
<g clip-path="url(#clip0_615_8537)">
<path d="M31.6405 23.9945C31.3617 21.9132 29.7802 20.2394 27.7459 19.8202V14.4413C27.7459 13.9272 27.3294 13.5099 26.8146 13.5099H26.1267V8.69778C26.1267 8.18367 25.7095 7.76643 25.1954 7.76643H21.7647V6.43136C21.7647 5.91724 21.3475 5.5 20.8333 5.5C20.3192 5.5 19.902 5.91724 19.902 6.43136V7.76643H16.4713C15.9572 7.76643 15.5399 8.18367 15.5399 8.69778V13.5099H14.8521C14.3373 13.5099 13.9207 13.9272 13.9207 14.4413V20.3621C12.3992 21.3587 11.2383 22.8114 10.5877 24.4782L6.18528 23.2316C5.59095 23.0632 5 23.5092 5 24.1274V36.2353C5 36.7494 5.41724 37.1667 5.93136 37.1667H35.7353C36.2494 37.1667 36.6667 36.7494 36.6667 36.2353V28.2875C36.6667 25.6144 34.2659 23.5756 31.6405 23.9945ZM34.804 35.304C34.0886 35.304 30.4499 35.304 29.8367 35.304V28.2875C29.8367 26.9159 30.9524 25.8039 32.3203 25.8039C33.6899 25.8039 34.804 26.9179 34.804 28.2875V35.304ZM25.3039 35.304V26.0628C25.3039 25.548 24.8866 25.1315 24.3725 25.1315H23.6752V24.6553C23.6752 22.9605 25.054 21.5817 26.7488 21.5817C28.3533 21.5817 29.8222 22.844 29.8222 24.7321C28.7053 25.5195 27.9737 26.8198 27.9737 28.2875V35.304C27.6957 35.304 25.5657 35.304 25.3039 35.304ZM6.86272 25.3593L10.0977 26.2759C10.0206 26.749 9.9815 27.2319 9.9815 27.7214V35.304H6.86272V25.3593ZM11.8445 35.304V27.7214C11.8445 24.4159 14.2075 21.1831 18.2707 20.7603V35.304C17.5433 35.304 12.5688 35.304 11.8445 35.304ZM15.7835 15.3726H25.8832V19.7946C23.5721 20.2051 21.8125 22.228 21.8125 24.6553V25.1315H20.1337V19.7811C20.1337 19.267 19.7162 18.8497 19.2023 18.8497C17.9958 18.8497 16.8426 19.0502 15.7835 19.4334C15.7835 18.9802 15.7835 15.894 15.7835 15.3726ZM17.4029 9.62914H24.2638V13.5099H17.4029V9.62914ZM20.1337 26.9942H23.4411V35.304C22.8125 35.304 20.8135 35.304 20.1337 35.304V26.9942Z" fill="#0F5DD1"/>
<path d="M32.8792 28.3701H31.7616C31.2486 28.3701 30.8302 28.7866 30.8302 29.3015C30.8302 29.8212 31.253 30.2328 31.7616 30.2328H32.8792C33.3933 30.2328 33.8105 29.8163 33.8105 29.3015C33.8105 28.7874 33.3933 28.3701 32.8792 28.3701Z" fill="#99C2FD"/>
<path d="M32.8792 31.3503H31.7616C31.2486 31.3503 30.8302 31.7669 30.8302 32.2819C30.8302 32.8014 31.253 33.2133 31.7616 33.2133H32.8792C33.3933 33.2133 33.8105 32.7965 33.8105 32.2819C33.8105 31.7678 33.3933 31.3503 32.8792 31.3503Z" fill="#99C2FD"/>
<path d="M22.2812 10.4983C21.958 10.4983 19.721 10.4983 19.3855 10.4983C18.8713 10.4983 18.4541 10.9155 18.4541 11.4296C18.4541 11.9438 18.8713 12.361 19.3855 12.361H22.2812C22.7954 12.361 23.2126 11.9438 23.2126 11.4296C23.2126 10.9155 22.7954 10.4983 22.2812 10.4983Z" fill="#99C2FD"/>
<path d="M17.8324 16.071H17.2942C16.78 16.071 16.3628 16.4883 16.3628 17.0024C16.3628 17.5172 16.78 17.9338 17.2942 17.9338H17.8324C18.3466 17.9338 18.7638 17.5172 18.7638 17.0024C18.7638 16.4883 18.3466 16.071 17.8324 16.071Z" fill="#99C2FD"/>
<path d="M20.5644 17.9338H21.1022C21.6168 17.9338 22.0336 17.5172 22.0336 17.0024C22.0336 16.4883 21.6168 16.071 21.1022 16.071H20.5644C20.0498 16.071 19.6331 16.4883 19.6331 17.0024C19.6331 17.5172 20.0498 17.9338 20.5644 17.9338Z" fill="#99C2FD"/>
<path d="M23.8342 17.9338H24.3725C24.8866 17.9338 25.3038 17.5172 25.3038 17.0024C25.3038 16.4883 24.8866 16.071 24.3725 16.071H23.8342C23.3201 16.071 22.9028 16.4883 22.9028 17.0024C22.9028 17.5172 23.3201 17.9338 23.8342 17.9338Z" fill="#99C2FD"/>
<path d="M16.4713 26.125C16.9854 26.125 17.4029 25.7077 17.4029 25.1936C17.4029 24.9518 17.4029 24.8653 17.4029 24.6862C17.4029 24.1721 16.9854 23.7549 16.4713 23.7549C15.9574 23.7549 15.5399 24.1716 15.5399 24.6862V25.1936C15.5399 25.7118 15.9608 26.125 16.4713 26.125Z" fill="#99C2FD"/>
<path d="M16.4713 29.7883C16.9852 29.7883 17.4029 29.3713 17.4029 28.8569V28.3496C17.4029 27.8362 16.9856 27.4182 16.4713 27.4182C15.9586 27.4182 15.5399 27.8342 15.5399 28.3496V28.8569C15.5399 29.3752 15.9608 29.7883 16.4713 29.7883Z" fill="#99C2FD"/>
<path d="M13.6308 29.7883C14.1449 29.7883 14.5622 29.371 14.5622 28.8569V28.3496C14.5622 27.8347 14.1437 27.4182 13.6308 27.4182C13.1177 27.4182 12.6992 27.8342 12.6992 28.3496V28.8569C12.6992 29.372 13.1172 29.7883 13.6308 29.7883Z" fill="#99C2FD"/>
<path d="M16.4713 33.4672C16.9852 33.4672 17.4029 33.05 17.4029 32.5359V32.0285C17.4029 31.5149 16.9856 31.0972 16.4713 31.0972C15.9576 31.0972 15.5399 31.5134 15.5399 32.0285V32.5359C15.5399 33.0507 15.9581 33.4672 16.4713 33.4672Z" fill="#99C2FD"/>
<path d="M14.5622 32.5359V32.0285C14.5622 31.5142 14.1449 31.0972 13.6308 31.0972C13.1177 31.0972 12.6992 31.513 12.6992 32.0285V32.5359C12.6992 33.0507 13.1172 33.4672 13.6308 33.4672C14.1374 33.4672 14.5622 33.0565 14.5622 32.5359Z" fill="#99C2FD"/>
<path d="M26.7489 22.7808C26.2355 22.7808 25.8175 23.1973 25.8175 23.7121V24.2287C25.8175 24.7822 26.2978 25.2023 26.8146 25.1576C27.2983 25.124 27.6802 24.7205 27.6802 24.2287V23.7121C27.6802 23.1966 27.2615 22.7808 26.7489 22.7808Z" fill="#99C2FD"/>
</g>
<defs>
<clipPath id="clip0_615_8537">
<rect width="31.6667" height="31.6667" fill="white" transform="translate(5 5.5)"/>
</clipPath>
</defs>
</svg>
