<svg width="19" height="19" viewBox="0 0 19 19" fill="none" xmlns="http://www.w3.org/2000/svg">
<g clip-path="url(#clip0_615_19714)">
<path d="M15.9843 11.0967C15.817 9.8479 14.8681 8.84363 13.6476 8.59212V5.36477C13.6476 5.0563 13.3976 4.80595 13.0887 4.80595H12.676V1.91867C12.676 1.6102 12.4257 1.35986 12.1172 1.35986H10.0588V0.558815C10.0588 0.250343 9.80847 0 9.5 0C9.19153 0 8.94118 0.250343 8.94118 0.558815V1.35986H6.88277C6.5743 1.35986 6.32396 1.6102 6.32396 1.91867V4.80595H5.91126C5.60236 4.80595 5.35245 5.0563 5.35245 5.36477V8.91727C4.4395 9.51522 3.74297 10.3869 3.3526 11.3869L0.711166 10.6389C0.354569 10.5379 0 10.8055 0 11.1764V18.4412C0 18.7497 0.250343 19 0.558815 19H18.4412C18.7497 19 19 18.7497 19 18.4412V13.6725C19 12.0687 17.5595 10.8454 15.9843 11.0967ZM17.8824 17.8824C17.4531 17.8824 15.2699 17.8824 14.902 17.8824V13.6725C14.902 12.8496 15.5714 12.1823 16.3922 12.1823C17.214 12.1823 17.8824 12.8507 17.8824 13.6725V17.8824ZM12.1823 17.8824V12.3377C12.1823 12.0288 11.932 11.7789 11.6235 11.7789H11.2051V11.4932C11.2051 10.4763 12.0324 9.64902 13.0493 9.64902C14.012 9.64902 14.8933 10.4064 14.8933 11.5393C14.2232 12.0117 13.7842 12.7919 13.7842 13.6725V17.8824C13.6174 17.8824 12.3394 17.8824 12.1823 17.8824ZM1.11763 11.9156L3.05862 12.4656C3.01238 12.7494 2.9889 13.0392 2.9889 13.3328V17.8824H1.11763V11.9156ZM4.10667 17.8824V13.3328C4.10667 11.3495 5.52451 9.40984 7.96243 9.15616V17.8824C7.52596 17.8824 4.54126 17.8824 4.10667 17.8824ZM6.47008 5.92358H12.5299V8.57676C11.1432 8.82304 10.0875 10.0368 10.0875 11.4932V11.7789H9.0802V8.56864C9.0802 8.26017 8.82971 8.00983 8.52139 8.00983C7.79746 8.00983 7.10558 8.13014 6.47008 8.36005C6.47008 8.0881 6.47008 6.2364 6.47008 5.92358ZM7.44173 2.47749H11.5583V4.80595H7.44173V2.47749ZM9.0802 12.8965H11.0647V17.8824C10.6875 17.8824 9.48811 17.8824 9.0802 17.8824V12.8965Z" fill="#667085"/>
<path d="M16.7274 13.7222H16.0569C15.7491 13.7222 15.498 13.9721 15.498 14.281C15.498 14.5928 15.7517 14.8398 16.0569 14.8398H16.7274C17.0359 14.8398 17.2863 14.5899 17.2863 14.281C17.2863 13.9725 17.0359 13.7222 16.7274 13.7222Z" fill="#D0D5DD"/>
<path d="M16.7274 15.5103H16.0569C15.7491 15.5103 15.498 15.7602 15.498 16.0692C15.498 16.3809 15.7517 16.628 16.0569 16.628H16.7274C17.0359 16.628 17.2863 16.378 17.2863 16.0692C17.2863 15.7607 17.0359 15.5103 16.7274 15.5103Z" fill="#D0D5DD"/>
<path d="M10.3688 2.99902C10.1748 2.99902 8.83267 2.99902 8.63132 2.99902C8.32285 2.99902 8.07251 3.24937 8.07251 3.55784C8.07251 3.86631 8.32285 4.11665 8.63132 4.11665H10.3688C10.6773 4.11665 10.9276 3.86631 10.9276 3.55784C10.9276 3.24937 10.6773 2.99902 10.3688 2.99902Z" fill="#D0D5DD"/>
<path d="M7.69941 6.34277H7.37644C7.06797 6.34277 6.81763 6.59312 6.81763 6.90159C6.81763 7.21049 7.06797 7.4604 7.37644 7.4604H7.69941C8.00788 7.4604 8.25822 7.21049 8.25822 6.90159C8.25822 6.59312 8.00788 6.34277 7.69941 6.34277Z" fill="#D0D5DD"/>
<path d="M9.3386 7.4604H9.66128C9.97004 7.4604 10.2201 7.21049 10.2201 6.90159C10.2201 6.59312 9.97004 6.34277 9.66128 6.34277H9.3386C9.02984 6.34277 8.77979 6.59312 8.77979 6.90159C8.77979 7.21049 9.02984 7.4604 9.3386 7.4604Z" fill="#D0D5DD"/>
<path d="M11.3005 7.4604H11.6235C11.932 7.4604 12.1823 7.21049 12.1823 6.90159C12.1823 6.59312 11.932 6.34277 11.6235 6.34277H11.3005C10.992 6.34277 10.7417 6.59312 10.7417 6.90159C10.7417 7.21049 10.992 7.4604 11.3005 7.4604Z" fill="#D0D5DD"/>
<path d="M6.88279 12.3752C7.19126 12.3752 7.44175 12.1248 7.44175 11.8164C7.44175 11.6712 7.44175 11.6194 7.44175 11.5119C7.44175 11.2035 7.19126 10.9531 6.88279 10.9531C6.57446 10.9531 6.32397 11.2032 6.32397 11.5119V11.8164C6.32397 12.1273 6.57649 12.3752 6.88279 12.3752Z" fill="#D0D5DD"/>
<path d="M6.88279 14.5729C7.19112 14.5729 7.44175 14.3227 7.44175 14.0141V13.7097C7.44175 13.4017 7.19141 13.1509 6.88279 13.1509C6.57519 13.1509 6.32397 13.4005 6.32397 13.7097V14.0141C6.32397 14.325 6.57649 14.5729 6.88279 14.5729Z" fill="#D0D5DD"/>
<path d="M5.17859 14.5729C5.48706 14.5729 5.7374 14.3226 5.7374 14.0141V13.7097C5.7374 13.4008 5.48634 13.1509 5.17859 13.1509C4.8707 13.1509 4.61963 13.4005 4.61963 13.7097V14.0141C4.61963 14.3232 4.87041 14.5729 5.17859 14.5729Z" fill="#D0D5DD"/>
<path d="M6.88279 16.7804C7.19112 16.7804 7.44175 16.5301 7.44175 16.2216V15.9172C7.44175 15.609 7.19141 15.3584 6.88279 15.3584C6.57461 15.3584 6.32397 15.6082 6.32397 15.9172V16.2216C6.32397 16.5305 6.5749 16.7804 6.88279 16.7804Z" fill="#D0D5DD"/>
<path d="M5.7374 16.2216V15.9172C5.7374 15.6086 5.48706 15.3584 5.17859 15.3584C4.8707 15.3584 4.61963 15.6079 4.61963 15.9172V16.2216C4.61963 16.5305 4.87041 16.7804 5.17859 16.7804C5.48257 16.7804 5.7374 16.534 5.7374 16.2216Z" fill="#D0D5DD"/>
<path d="M13.0493 10.3687C12.7413 10.3687 12.4905 10.6186 12.4905 10.9275V11.2374C12.4905 11.5695 12.7787 11.8216 13.0887 11.7948C13.3789 11.7746 13.6081 11.5325 13.6081 11.2374V10.9275C13.6081 10.6181 13.3569 10.3687 13.0493 10.3687Z" fill="#D0D5DD"/>
</g>
<defs>
<clipPath id="clip0_615_19714">
<rect width="19" height="19" fill="white"/>
</clipPath>
</defs>
</svg>
