<svg width="21" height="20" viewBox="0 0 21 20" fill="none" xmlns="http://www.w3.org/2000/svg">
<g id="fingerprint-04">
<path id="Icon" d="M5.33907 15.442C5.35382 15.4171 5.36894 15.3924 5.38442 15.3678C6.51316 13.5734 7.16659 11.4515 7.16659 9.16667C7.16659 7.32572 8.65897 5.83333 10.4999 5.83333C12.3409 5.83333 13.8333 7.32572 13.8333 9.16667C13.8333 10.0142 13.7756 10.8488 13.6639 11.6667M11.8993 17.3697C12.4091 16.3522 12.827 15.2807 13.1423 14.1667M16.3414 15.11C16.8789 13.2214 17.1667 11.2276 17.1667 9.16667C17.1667 5.48477 14.1819 2.5 10.5 2.5C9.28571 2.5 8.14724 2.82465 7.16667 3.39188M3 12.8034C3.53388 11.7045 3.83333 10.4705 3.83333 9.16667C3.83333 7.95238 4.15798 6.81391 4.72521 5.83333M10.4999 9.16667C10.4999 12.0977 9.65924 14.8323 8.20589 17.1427" stroke="#344054" stroke-width="1.66667" stroke-linecap="round" stroke-linejoin="round"/>
</g>
</svg>
