<svg width="20" height="20" viewBox="0 0 20 20" fill="none" xmlns="http://www.w3.org/2000/svg">
<g clip-path="url(#clip0_309_6921)">
<path d="M10 1.6665C12.0844 3.94846 13.269 6.90987 13.3333 9.99984C13.269 13.0898 12.0844 16.0512 10 18.3332M10 1.6665C7.91561 3.94846 6.73104 6.90987 6.66667 9.99984C6.73104 13.0898 7.91561 16.0512 10 18.3332M10 1.6665C5.39763 1.6665 1.66667 5.39746 1.66667 9.99984C1.66667 14.6022 5.39763 18.3332 10 18.3332M10 1.6665C14.6024 1.6665 18.3333 5.39746 18.3333 9.99984C18.3333 14.6022 14.6024 18.3332 10 18.3332M2.08335 7.49984H17.9167M2.08334 12.4998H17.9167" stroke="black" stroke-width="2" stroke-linecap="round" stroke-linejoin="round"/>
</g>
<defs>
<clipPath id="clip0_309_6921">
<rect width="20" height="20" fill="white"/>
</clipPath>
</defs>
</svg>
