<svg width="25" height="24" viewBox="0 0 25 24" fill="none" xmlns="http://www.w3.org/2000/svg">
<path d="M8.30078 17H16.3008M11.3185 2.76401L4.53617 8.03914C4.0828 8.39176 3.85612 8.56807 3.69281 8.78887C3.54815 8.98446 3.44038 9.2048 3.37481 9.43907C3.30078 9.70353 3.30078 9.99071 3.30078 10.5651V17.8C3.30078 18.9201 3.30078 19.4802 3.51877 19.908C3.71051 20.2843 4.01648 20.5903 4.3928 20.782C4.82062 21 5.38068 21 6.50078 21H18.1008C19.2209 21 19.7809 21 20.2088 20.782C20.5851 20.5903 20.891 20.2843 21.0828 19.908C21.3008 19.4802 21.3008 18.9201 21.3008 17.8V10.5651C21.3008 9.99071 21.3008 9.70353 21.2268 9.43907C21.1612 9.2048 21.0534 8.98446 20.9088 8.78887C20.7454 8.56807 20.5188 8.39176 20.0654 8.03914L13.2831 2.76401C12.9318 2.49076 12.7561 2.35413 12.5621 2.30162C12.391 2.25528 12.2106 2.25528 12.0394 2.30162C11.8455 2.35413 11.6698 2.49076 11.3185 2.76401Z" stroke="#0D6EFD" stroke-width="2" stroke-linecap="round" stroke-linejoin="round"/>
</svg>
