<svg width="23" height="21" viewBox="0 0 23 21" fill="none" xmlns="http://www.w3.org/2000/svg">
<path d="M7.38257 9.5H4.48257C3.92252 9.5 3.64249 9.5 3.42858 9.60899C3.24042 9.70487 3.08744 9.85785 2.99156 10.046C2.88257 10.2599 2.88257 10.5399 2.88257 11.1V19.5M16.3826 9.5H19.2826C19.8426 9.5 20.1226 9.5 20.3366 9.60899C20.5247 9.70487 20.6777 9.85785 20.7736 10.046C20.8826 10.2599 20.8826 10.5399 20.8826 11.1V19.5M16.3826 19.5V4.7C16.3826 3.5799 16.3826 3.01984 16.1646 2.59202C15.9728 2.21569 15.6669 1.90973 15.2905 1.71799C14.8627 1.5 14.3027 1.5 13.1826 1.5H10.5826C9.46246 1.5 8.90241 1.5 8.47459 1.71799C8.09826 1.90973 7.7923 2.21569 7.60056 2.59202C7.38257 3.01984 7.38257 3.5799 7.38257 4.7V19.5M21.8826 19.5H1.88257M10.8826 5.5H12.8826M10.8826 9.5H12.8826M10.8826 13.5H12.8826" stroke="#4D6DEF" stroke-width="2" stroke-linecap="round" stroke-linejoin="round"/>
</svg>
