<svg width="19" height="23" viewBox="0 0 19 23" fill="none" xmlns="http://www.w3.org/2000/svg">
<path d="M17.8826 18.5V15.5H4.88257C3.22571 15.5 1.88257 16.8431 1.88257 18.5M6.68257 21.5H14.6826C15.8027 21.5 16.3627 21.5 16.7905 21.282C17.1669 21.0903 17.4728 20.7843 17.6646 20.408C17.8826 19.9802 17.8826 19.4201 17.8826 18.3V4.7C17.8826 3.57989 17.8826 3.01984 17.6646 2.59202C17.4728 2.21569 17.1669 1.90973 16.7905 1.71799C16.3627 1.5 15.8027 1.5 14.6826 1.5H6.68257C5.00241 1.5 4.16233 1.5 3.5206 1.82698C2.95611 2.1146 2.49717 2.57354 2.20955 3.13803C1.88257 3.77976 1.88257 4.61984 1.88257 6.3V16.7C1.88257 18.3802 1.88257 19.2202 2.20955 19.862C2.49717 20.4265 2.95611 20.8854 3.5206 21.173C4.16233 21.5 5.00241 21.5 6.68257 21.5Z" stroke="#4D6DEF" stroke-width="2" stroke-linecap="round" stroke-linejoin="round"/>
</svg>
