<svg width="25" height="25" viewBox="0 0 25 25" fill="none" xmlns="http://www.w3.org/2000/svg">
<path d="M5.38257 22.5V17.5M5.38257 7.5V2.5M2.88257 5H7.88257M2.88257 20H7.88257M13.8826 3.5L12.1484 8.00886C11.8664 8.74209 11.7254 9.10871 11.5061 9.41709C11.3118 9.6904 11.073 9.92919 10.7997 10.1235C10.4913 10.3428 10.1247 10.4838 9.39143 10.7658L4.88257 12.5L9.39143 14.2342C10.1247 14.5162 10.4913 14.6572 10.7997 14.8765C11.073 15.0708 11.3118 15.3096 11.5061 15.5829C11.7254 15.8913 11.8664 16.2579 12.1484 16.9911L13.8826 21.5L15.6167 16.9911C15.8988 16.2579 16.0398 15.8913 16.259 15.5829C16.4534 15.3096 16.6922 15.0708 16.9655 14.8765C17.2739 14.6572 17.6405 14.5162 18.3737 14.2342L22.8826 12.5L18.3737 10.7658C17.6405 10.4838 17.2739 10.3428 16.9655 10.1235C16.6922 9.92919 16.4534 9.6904 16.259 9.41709C16.0398 9.10871 15.8988 8.74209 15.6167 8.00886L13.8826 3.5Z" stroke="#4D6DEF" stroke-width="2" stroke-linecap="round" stroke-linejoin="round"/>
</svg>
