<svg width="23" height="21" viewBox="0 0 23 21" fill="none" xmlns="http://www.w3.org/2000/svg">
<path d="M4.15466 19.2279L10.7512 12.6314C11.1472 12.2354 11.3452 12.0373 11.5736 11.9632C11.7744 11.8979 11.9907 11.8979 12.1916 11.9632C12.4199 12.0373 12.6179 12.2354 13.0139 12.6314L19.5665 19.1839M13.8826 13.5L16.7512 10.6314C17.1472 10.2354 17.3452 10.0373 17.5736 9.96316C17.7744 9.8979 17.9907 9.8979 18.1916 9.96316C18.4199 10.0373 18.6179 10.2354 19.0139 10.6314L21.8826 13.5M9.88257 7.5C9.88257 8.60457 8.98714 9.5 7.88257 9.5C6.778 9.5 5.88257 8.60457 5.88257 7.5C5.88257 6.39543 6.778 5.5 7.88257 5.5C8.98714 5.5 9.88257 6.39543 9.88257 7.5ZM6.68257 19.5H17.0826C18.7627 19.5 19.6028 19.5 20.2445 19.173C20.809 18.8854 21.268 18.4265 21.5556 17.862C21.8826 17.2202 21.8826 16.3802 21.8826 14.7V6.3C21.8826 4.61984 21.8826 3.77976 21.5556 3.13803C21.268 2.57354 20.809 2.1146 20.2445 1.82698C19.6028 1.5 18.7627 1.5 17.0826 1.5H6.68257C5.00241 1.5 4.16233 1.5 3.5206 1.82698C2.95611 2.1146 2.49717 2.57354 2.20955 3.13803C1.88257 3.77976 1.88257 4.61984 1.88257 6.3V14.7C1.88257 16.3802 1.88257 17.2202 2.20955 17.862C2.49717 18.4265 2.95611 18.8854 3.5206 19.173C4.16233 19.5 5.00241 19.5 6.68257 19.5Z" stroke="#4D6DEF" stroke-width="2" stroke-linecap="round" stroke-linejoin="round"/>
</svg>
