<svg width="23" height="23" viewBox="0 0 23 23" fill="none" xmlns="http://www.w3.org/2000/svg">
<path d="M6.88257 1.5V5.5M6.88257 15.5V19.5M16.8826 3.5V7.5M16.8826 17.5V21.5M1.88257 5.5H11.8826M1.88257 15.5H11.8826M11.8826 7.5H21.8826M11.8826 17.5H21.8826M11.8826 19.5V3.1C11.8826 2.53995 11.8826 2.25992 11.7736 2.04601C11.6777 1.85785 11.5247 1.70487 11.3366 1.60899C11.1226 1.5 10.8426 1.5 10.2826 1.5H6.68257C5.00241 1.5 4.16233 1.5 3.5206 1.82698C2.95611 2.1146 2.49717 2.57354 2.20955 3.13803C1.88257 3.77976 1.88257 4.61984 1.88257 6.3V14.7C1.88257 16.3802 1.88257 17.2202 2.20955 17.862C2.49717 18.4265 2.95611 18.8854 3.5206 19.173C4.16233 19.5 5.00241 19.5 6.68257 19.5H11.8826ZM11.8826 3.5H17.0826C18.7627 3.5 19.6028 3.5 20.2445 3.82698C20.809 4.1146 21.268 4.57354 21.5556 5.13803C21.8826 5.77976 21.8826 6.61984 21.8826 8.3V16.7C21.8826 18.3802 21.8826 19.2202 21.5556 19.862C21.268 20.4265 20.809 20.8854 20.2445 21.173C19.6028 21.5 18.7627 21.5 17.0826 21.5H13.4826C12.9225 21.5 12.6425 21.5 12.4286 21.391C12.2404 21.2951 12.0874 21.1422 11.9916 20.954C11.8826 20.7401 11.8826 20.4601 11.8826 19.9V3.5Z" stroke="#4D6DEF" stroke-width="2" stroke-linecap="round" stroke-linejoin="round"/>
</svg>
