<svg width="25" height="33" viewBox="0 0 25 33" fill="none" xmlns="http://www.w3.org/2000/svg">
<ellipse cx="12.1649" cy="31.2543" rx="5.53893" ry="0.812784" fill="black" fill-opacity="0.28"/>
<path d="M14.3661 20.7272C14.3661 20.7271 14.3656 20.7297 14.3642 20.735C14.3653 20.7298 14.366 20.7272 14.3661 20.7272ZM14.0504 20.7072C14.1779 20.8049 14.2517 20.8851 14.2938 20.9428C14.2105 21.1594 14.0723 21.4603 13.867 21.8449C13.4336 22.6571 12.8248 23.6145 12.1649 24.575C11.505 23.6145 10.8962 22.6571 10.4628 21.8449C10.2575 21.4603 10.1193 21.1594 10.0359 20.9428C10.0781 20.8851 10.1519 20.8049 10.2794 20.7072C10.644 20.4278 11.299 20.155 12.1649 20.155C13.0307 20.155 13.6857 20.4278 14.0504 20.7072ZM9.96371 20.7272C9.96378 20.7272 9.96446 20.7298 9.96555 20.735C9.96419 20.7297 9.96365 20.7271 9.96371 20.7272ZM9.98272 21.0459C9.98205 21.0458 9.98271 21.04 9.98668 21.029C9.98537 21.0406 9.98338 21.046 9.98272 21.0459ZM14.3431 21.029C14.3471 21.04 14.3477 21.0458 14.347 21.0459C14.3464 21.046 14.3444 21.0406 14.3431 21.029Z" fill="#0D6EFD" stroke="#0B49A2" stroke-width="7"/>
<circle cx="12.1649" cy="12.6" r="8.66493" fill="white" stroke="#0B49A2" stroke-width="7"/>
</svg>
