<svg width="52" height="52" viewBox="0 0 52 52" fill="none" xmlns="http://www.w3.org/2000/svg">
<path d="M26.1592 28.7495C26.9668 28.7495 27.6217 28.0946 27.6217 27.287C27.6217 26.4794 26.9668 25.8245 26.1592 25.8245H13.6418C12.8342 25.8245 12.1793 26.4794 12.1793 27.287C12.1793 28.0946 12.8342 28.7495 13.6418 28.7495H26.1592Z" fill="#66A4FF"/>
<path d="M48.75 43.641H46.683V9.15525C46.683 7.098 45.0092 5.42587 42.952 5.42587H22.1682C20.111 5.42587 18.4372 7.098 18.4372 9.15525V16.6302H9.04798C6.99073 16.6302 5.31698 18.3024 5.31698 20.3596V43.6426H3.24998C2.44235 43.6426 1.78748 44.2975 1.78748 45.1051C1.78748 45.9127 2.44235 46.5676 3.24998 46.5676H48.75C49.5576 46.5676 50.2125 45.9127 50.2125 45.1051C50.2125 44.2975 49.5576 43.641 48.75 43.641ZM21.3622 9.15525C21.3622 8.71162 21.723 8.35087 22.1666 8.35087H42.9503C43.394 8.35087 43.7547 8.71162 43.7547 9.15525V43.6426H34.489V20.358C34.489 18.3007 32.8169 16.6286 30.7596 16.6286H21.3622V9.15525ZM8.2436 20.358C8.2436 19.9144 8.60435 19.5536 9.04798 19.5536H30.7612C31.2032 19.5536 31.564 19.9144 31.564 20.358V43.641H25.5742V37.2515C25.5742 35.399 24.0662 33.891 22.2137 33.891H17.5873C15.7332 33.891 14.2252 35.399 14.2252 37.2515V43.641H8.2436V20.358ZM22.6492 43.641H17.1519V37.2515C17.1519 37.011 17.3469 36.816 17.589 36.816H22.2153C22.4542 36.816 22.6509 37.011 22.6509 37.2515V43.641H22.6492Z" fill="#0D6EFD"/>
</svg>
