<svg width="52" height="52" viewBox="0 0 52 52" fill="none" xmlns="http://www.w3.org/2000/svg">
<path d="M31.5315 31.5104C33.8211 29.8123 35.3145 27.0969 35.3145 24.0338C35.3145 18.8988 31.1366 14.7209 26 14.7209C20.8634 14.7209 16.6855 18.8988 16.6855 24.0338C16.6855 27.0969 18.1789 29.8123 20.4685 31.5104C18.5364 32.3196 16.9536 33.5319 16.0192 35.0513C15.5951 35.7386 15.8112 36.6405 16.5002 37.063C17.1892 37.4871 18.0895 37.2694 18.5104 36.5836C19.6982 34.6499 22.7094 33.3483 25.9984 33.3483C29.2874 33.3483 32.2985 34.6483 33.4864 36.5836C33.7626 37.0321 34.242 37.2808 34.7344 37.2808C34.9944 37.2808 35.2592 37.2109 35.4981 37.0646C36.1871 36.6421 36.4032 35.7419 35.9791 35.0529C35.0464 33.5335 33.462 32.3196 31.5315 31.5104ZM19.6105 24.0338C19.6105 20.5108 22.477 17.6443 26 17.6443C29.523 17.6443 32.3895 20.5108 32.3895 24.0338C32.3895 27.5568 29.523 30.4233 26 30.4233C22.477 30.4233 19.6105 27.5568 19.6105 24.0338Z" fill="#66A4FF"/>
<path d="M26 1.78751C12.649 1.78751 1.78748 12.649 1.78748 26C1.78748 39.351 12.649 50.2125 26 50.2125C39.351 50.2125 50.2125 39.351 50.2125 26C50.2125 12.649 39.351 1.78751 26 1.78751ZM26 47.2875C14.261 47.2875 4.71248 37.7374 4.71248 26C4.71248 14.2626 14.261 4.71251 26 4.71251C37.739 4.71251 47.2875 14.2626 47.2875 26C47.2875 37.7374 37.739 47.2875 26 47.2875Z" fill="#0D6EFD"/>
</svg>
