<svg width="20" height="21" viewBox="0 0 20 21" fill="none" xmlns="http://www.w3.org/2000/svg">
<path d="M1.66669 6.08887L8.47079 10.8517C9.02176 11.2374 9.29725 11.4303 9.59691 11.505C9.8616 11.5709 10.1384 11.5709 10.4031 11.505C10.7028 11.4303 10.9783 11.2374 11.5293 10.8517L18.3334 6.08887M5.66669 16.9222H14.3334C15.7335 16.9222 16.4336 16.9222 16.9683 16.6497C17.4387 16.41 17.8212 16.0276 18.0609 15.5572C18.3334 15.0224 18.3334 14.3223 18.3334 12.9222V7.58887C18.3334 6.18874 18.3334 5.48867 18.0609 4.95389C17.8212 4.48349 17.4387 4.10103 16.9683 3.86135C16.4336 3.58887 15.7335 3.58887 14.3334 3.58887H5.66669C4.26656 3.58887 3.56649 3.58887 3.03171 3.86135C2.56131 4.10103 2.17885 4.48349 1.93917 4.95389C1.66669 5.48867 1.66669 6.18874 1.66669 7.58887V12.9222C1.66669 14.3223 1.66669 15.0224 1.93917 15.5572C2.17885 16.0276 2.56131 16.41 3.03171 16.6497C3.56649 16.9222 4.26656 16.9222 5.66669 16.9222Z" stroke="#0D6EFD" stroke-width="2" stroke-linecap="round" stroke-linejoin="round"/>
</svg>
