<svg width="40" height="41" viewBox="0 0 40 41" fill="none" xmlns="http://www.w3.org/2000/svg">
<g clip-path="url(#clip0_2303_29403)">
<path d="M37.1319 18.4348L37.1335 18.436C37.6832 18.8396 38.1658 19.1995 38.5212 19.5921C38.8659 19.9729 39.0003 20.287 39.0003 20.5864C39.0003 20.8858 38.866 21.1995 38.5215 21.5802C38.1664 21.9725 37.6852 22.3318 37.1361 22.7364C36.8343 22.9563 36.4544 23.2342 36.1359 23.511C35.9758 23.6501 35.8094 23.8074 35.6677 23.9744C35.541 24.1237 35.3593 24.3658 35.2764 24.6749L35.2358 24.826L35.2433 24.9823C35.2848 25.8412 35.5215 26.6792 35.9355 27.4325C36.2081 28.0613 36.4304 28.5829 36.5338 29.0659C36.6342 29.535 36.5941 29.8458 36.4489 30.0957C36.3033 30.3461 36.0483 30.5395 35.5819 30.6896C35.1054 30.8431 34.5337 30.9132 33.8501 30.9902C33.0126 31.0036 32.1883 31.2033 31.4372 31.5749L31.1345 31.7247L30.9845 32.0273C30.6122 32.779 30.4119 33.6038 30.3978 34.442C30.3213 35.1202 30.2465 35.6963 30.0902 36.1736C29.936 36.6447 29.74 36.8988 29.4961 37.0394L29.4961 37.0394C29.2501 37.1812 28.9377 37.222 28.4647 37.1217C27.9813 37.0192 27.4563 36.7982 26.8329 36.5269C26.0859 36.1147 25.2557 35.8757 24.4035 35.8274L24.248 35.8186L24.0971 35.8576C23.7814 35.9391 23.536 36.1251 23.3887 36.2507C23.2223 36.3925 23.0655 36.5595 22.9272 36.7193C22.6655 37.0216 22.3994 37.3824 22.1846 37.6736L22.1512 37.7189L22.1508 37.7195C21.7454 38.2695 21.3863 38.7508 20.9939 39.1058C20.614 39.4495 20.3002 39.5839 19.9993 39.5839C19.6985 39.5839 19.3847 39.4494 19.0048 39.1058C18.6125 38.7509 18.2535 38.2698 17.8483 37.72C17.6285 37.4196 17.3505 37.0396 17.0744 36.7216C16.9356 36.5617 16.7785 36.3952 16.6116 36.2535C16.4624 36.1267 16.2203 35.9448 15.9109 35.8618L15.7568 35.8204L15.5975 35.829C14.742 35.8754 13.9079 36.1116 13.1554 36.52C12.5255 36.7939 12.0032 37.017 11.5199 37.1205C11.0514 37.2208 10.741 37.1805 10.4912 37.0349C10.2397 36.8883 10.0462 36.6324 9.89609 36.1667C9.74274 35.6908 9.67261 35.1203 9.59572 34.438C9.58359 33.5966 9.38298 32.7682 9.00835 32.0141L8.85896 31.7134L8.55837 31.5638C7.80568 31.1891 6.97887 30.9878 6.13859 30.9744C5.46181 30.9022 4.88719 30.8299 4.41178 30.6754C3.94384 30.5233 3.68823 30.3278 3.54487 30.0807C3.40193 29.8343 3.36093 29.5227 3.46118 29.0505C3.56374 28.5673 3.78513 28.0431 4.05679 27.419C4.47032 26.6724 4.70972 25.8417 4.75664 24.989L4.76504 24.8364L4.72749 24.6883C4.64693 24.3706 4.46021 24.1238 4.33479 23.9764C4.1929 23.8095 4.02579 23.6523 3.86592 23.5138C3.56158 23.2502 3.19839 22.9826 2.90667 22.7676C2.89309 22.7576 2.87966 22.7477 2.86641 22.7379L2.86472 22.7367C2.31488 22.3331 1.8331 21.9738 1.4783 21.5815C1.1346 21.2016 1 20.8874 1 20.5864C1 20.2853 1.13464 19.971 1.47824 19.591C1.83259 19.1991 2.31333 18.8402 2.8618 18.4369C3.16371 18.2168 3.54388 17.9388 3.86267 17.6618C4.02271 17.5228 4.18915 17.3654 4.33084 17.1984C4.45751 17.0491 4.6392 16.807 4.72216 16.4979L4.7634 16.3443L4.75494 16.1855C4.70934 15.3291 4.46956 14.4946 4.05396 13.7449C3.78028 13.123 3.55954 12.5981 3.45895 12.1162C3.36081 11.6461 3.40229 11.3303 3.54951 11.077C3.69504 10.8267 3.95008 10.6333 4.41642 10.4831C4.89284 10.3297 5.46439 10.2595 6.14771 10.1826C6.98236 10.1701 7.80408 9.97265 8.5537 9.60414L8.85807 9.45451L9.00861 9.1506C9.38099 8.39887 9.5813 7.57391 9.59534 6.73562C9.67185 6.05468 9.74705 5.47691 9.90355 4.99897C10.058 4.52717 10.2543 4.27213 10.4987 4.13066C10.745 3.98809 11.0574 3.94644 11.5294 4.04573C12.0124 4.14732 12.5401 4.36904 13.1653 4.6439C13.9123 5.05324 14.7408 5.2921 15.5912 5.34336L15.7486 5.35284L15.9013 5.31343C16.217 5.23193 16.4623 5.04591 16.6097 4.92032C16.776 4.77848 16.9329 4.61155 17.0712 4.45175C17.3328 4.14944 17.5989 3.78876 17.8137 3.49749C17.825 3.48216 17.8362 3.46702 17.8472 3.45209L17.8476 3.45155C18.253 2.90151 18.612 2.42018 19.0045 2.06519C19.3844 1.72157 19.6982 1.5871 19.999 1.5871C20.2999 1.5871 20.6138 1.72155 20.9947 2.06565C21.3878 2.42074 21.7475 2.90134 22.1556 3.45146C22.3753 3.75179 22.6532 4.13154 22.9292 4.44943C23.068 4.60933 23.2251 4.7758 23.392 4.91754C23.5412 5.04429 23.7833 5.22621 24.0927 5.30926L24.2473 5.35077L24.4072 5.34193C25.2609 5.29469 26.0927 5.05507 26.8404 4.64105C27.4613 4.36746 27.9862 4.14675 28.468 4.0464C28.938 3.9485 29.2539 3.99025 29.5071 4.13786C29.7586 4.28444 29.9521 4.54031 30.1022 5.00606C30.2555 5.48191 30.3257 6.05246 30.4026 6.7347C30.4147 7.57617 30.6153 8.40452 30.9899 9.15864L31.1393 9.45935L31.4399 9.60896C32.1926 9.98361 33.0194 10.1849 33.8597 10.1983C34.5365 10.2705 35.1111 10.3428 35.5865 10.4973C36.0545 10.6494 36.3101 10.845 36.4534 11.092C36.5964 11.3384 36.6374 11.65 36.5371 12.1223C36.4345 12.6054 36.2132 13.1297 35.9415 13.7537C35.528 14.5003 35.2886 15.331 35.2416 16.1837L35.2332 16.3363L35.2708 16.4844C35.3514 16.8022 35.5381 17.0489 35.6635 17.1964C35.8054 17.3632 35.9725 17.5204 36.1324 17.6589C36.4367 17.9225 36.7998 18.1901 37.0915 18.4051L37.1319 18.4348Z" stroke="#99C2FD" stroke-width="2"/>
<path d="M14.9491 25.0851C14.6816 25.0851 14.4297 24.9591 14.2692 24.7451L10.6998 19.9859V24.2352C10.6998 24.7045 10.3193 25.0851 9.84989 25.0851C9.38053 25.0851 9 24.7045 9 24.2352V17.4363C9 16.967 9.38053 16.5864 9.84989 16.5864C10.1174 16.5864 10.3693 16.7124 10.5297 16.9264L14.0992 21.6856V17.4363C14.0992 16.967 14.4797 16.5864 14.9491 16.5864C15.4184 16.5864 15.7989 16.967 15.7989 17.4363V24.2352C15.7987 24.6008 15.5645 24.9253 15.2176 25.0408C15.1311 25.0702 15.0404 25.0851 14.9491 25.0851Z" fill="#0F5DD1"/>
<path d="M21.748 25.0851H18.3485C17.8792 25.0851 17.4987 24.7045 17.4987 24.2352V17.4363C17.4987 16.967 17.8792 16.5864 18.3485 16.5864H21.748C22.2174 16.5864 22.5979 16.967 22.5979 17.4363C22.5979 17.9057 22.2174 18.2862 21.748 18.2862H19.1984V23.3854H21.748C22.2174 23.3854 22.5979 23.7659 22.5979 24.2353C22.5979 24.7046 22.2174 25.0851 21.748 25.0851Z" fill="#0F5DD1"/>
<path d="M21.748 21.6856H18.3485C17.8792 21.6856 17.4987 21.305 17.4987 20.8357C17.4987 20.3663 17.8792 19.9858 18.3485 19.9858H21.748C22.2174 19.9858 22.5979 20.3663 22.5979 20.8357C22.5979 21.305 22.2174 21.6856 21.748 21.6856Z" fill="#0F5DD1"/>
<path d="M29.9075 25.0848C29.5412 25.0853 29.2158 24.8511 29.1001 24.5035L28.2078 21.823L27.3154 24.5035C27.2068 24.8703 26.8572 25.1117 26.4757 25.0832C26.0983 25.0688 25.7756 24.8071 25.6837 24.4407L23.984 17.6418C23.8704 17.1861 24.1478 16.7245 24.6036 16.6109C25.0593 16.4973 25.5208 16.7747 25.6345 17.2305L26.6254 21.1976L27.4021 18.8673C27.6041 18.4218 28.1289 18.2245 28.5744 18.4264C28.7699 18.5151 28.9265 18.6718 29.0152 18.8673L29.792 21.1976L30.7829 17.2305C30.8965 16.7747 31.358 16.4973 31.8138 16.6109C32.2695 16.7245 32.5469 17.186 32.4333 17.6418L30.7336 24.4407C30.6418 24.8071 30.319 25.0688 29.9416 25.0832L29.9075 25.0848Z" fill="#0F5DD1"/>
</g>
<defs>
<clipPath id="clip0_2303_29403">
<rect width="40" height="40" fill="white" transform="translate(0 0.585449)"/>
</clipPath>
</defs>
</svg>
