<svg width="40" height="40" viewBox="0 0 40 40" fill="none" xmlns="http://www.w3.org/2000/svg">
<path d="M14.8992 23.9997C14.6474 23.9997 14.4103 23.8811 14.2593 23.6797L10.8998 19.2005V23.1998C10.8998 23.6416 10.5417 23.9997 10.0999 23.9997C9.65819 23.9997 9.30005 23.6416 9.30005 23.1998V16.8009C9.30005 16.3591 9.65819 16.001 10.0999 16.001C10.3517 16.001 10.5888 16.1195 10.7398 16.3209L14.0993 20.8002V16.8009C14.0993 16.3591 14.4574 16.001 14.8992 16.001C15.3409 16.001 15.6991 16.3591 15.6991 16.8009V23.1998C15.6988 23.5439 15.4784 23.8493 15.1519 23.9581C15.0705 23.9857 14.9852 23.9997 14.8992 23.9997Z" fill="#98A2B3"/>
<path d="M21.298 23.9997H18.0985C17.6567 23.9997 17.2986 23.6416 17.2986 23.1998V16.8009C17.2986 16.3591 17.6567 16.001 18.0985 16.001H21.298C21.7397 16.001 22.0979 16.3591 22.0979 16.8009C22.0979 17.2426 21.7397 17.6008 21.298 17.6008H18.8984V22.4H21.298C21.7397 22.4 22.0979 22.7581 22.0979 23.1999C22.0979 23.6416 21.7397 23.9997 21.298 23.9997Z" fill="#98A2B3"/>
<path d="M21.298 20.8H18.0985C17.6567 20.8 17.2986 20.4418 17.2986 20.0001C17.2986 19.5583 17.6567 19.2002 18.0985 19.2002H21.298C21.7397 19.2002 22.0979 19.5583 22.0979 20.0001C22.0979 20.4418 21.7397 20.8 21.298 20.8Z" fill="#98A2B3"/>
<path d="M28.9777 23.9994C28.6329 23.9999 28.3267 23.7794 28.2178 23.4523L27.3779 20.9295L26.5381 23.4523C26.4359 23.7975 26.1068 24.0247 25.7478 23.9979C25.3925 23.9844 25.0888 23.738 25.0023 23.3932L23.4026 16.9942C23.2957 16.5653 23.5568 16.1309 23.9857 16.024C24.4147 15.917 24.8491 16.1781 24.956 16.6071L25.8886 20.3409L26.6197 18.1476C26.8098 17.7284 27.3037 17.5426 27.723 17.7327C27.907 17.8162 28.0544 17.9636 28.1379 18.1476L28.8689 20.3409L29.8015 16.6071C29.9085 16.1781 30.3428 15.917 30.7718 16.024C31.2007 16.1309 31.4618 16.5652 31.3549 16.9942L29.7552 23.3932C29.6687 23.738 29.365 23.9844 29.0097 23.9979L28.9777 23.9994Z" fill="#98A2B3"/>
<path fill-rule="evenodd" clip-rule="evenodd" d="M35.5491 24.6308L36.095 27.5622C36.5394 29.949 34.9089 32.2224 32.5307 32.5318L29.6099 32.9118L28.3506 35.6083C27.3252 37.8039 24.6869 38.6723 22.5835 37.5066L20 36.0748L17.4165 37.5066C15.3131 38.6723 12.6748 37.8039 11.6494 35.6084L10.3901 32.9118L7.46928 32.5318C5.09113 32.2224 3.46058 29.949 3.90501 27.5622L4.45086 24.6308L2.30834 22.5842C0.563892 20.9179 0.563885 18.1078 2.30834 16.4414L4.45086 14.3949L3.90501 11.4635C3.46058 9.07668 5.09112 6.80323 7.46928 6.49385L10.3901 6.11388L11.6494 3.41729C12.6748 1.22172 15.3131 0.353334 17.4165 1.51907L20 2.95082L22.5835 1.51907C24.6869 0.353337 27.3252 1.22172 28.3506 3.41729L29.6099 6.11388L32.5307 6.49385C34.9089 6.80322 36.5394 9.07668 36.095 11.4635L35.5491 14.3949L37.6917 16.4414C39.4361 18.1077 39.4361 20.9179 37.6917 22.5842L35.5491 24.6308ZM36.0239 20.7926C36.7508 20.0983 36.7508 18.9274 36.0239 18.2331L33.605 15.9225C33.1743 15.5111 32.9802 14.9059 33.0899 14.3167L33.7062 11.007C33.8914 10.0125 33.212 9.06524 32.2211 8.93633L28.9234 8.50733C28.3363 8.43096 27.8281 8.0569 27.575 7.5149L26.1532 4.47037C25.7259 3.55555 24.6266 3.19372 23.7502 3.67945L20.8334 5.29593C20.3141 5.58371 19.6859 5.58371 19.1666 5.29593L16.2498 3.67944C15.3734 3.19372 14.2741 3.55555 13.8469 4.47037L12.425 7.5149C12.1719 8.0569 11.6637 8.43096 11.0766 8.50733L7.77891 8.93633C6.78802 9.06524 6.10862 10.0125 6.2938 11.007L6.91009 14.3167C7.0198 14.9059 6.82567 15.5111 6.39503 15.9225L3.97606 18.2331C3.2492 18.9274 3.2492 20.0983 3.97606 20.7926L6.39503 23.1032C6.82567 23.5145 7.0198 24.1198 6.91009 24.709L6.2938 28.0186C6.10862 29.0131 6.78802 29.9604 7.77892 30.0893L11.0766 30.5183C11.6637 30.5947 12.1719 30.9687 12.425 31.5107L13.8469 34.5553C14.2741 35.4701 15.3734 35.8319 16.2498 35.3462L19.1666 33.7297C19.6859 33.4419 20.3141 33.4419 20.8334 33.7297L23.7502 35.3462C24.6266 35.8319 25.7259 35.4701 26.1532 34.5553L27.575 31.5107C27.8281 30.9687 28.3363 30.5947 28.9234 30.5183L32.2211 30.0893C33.212 29.9604 33.8914 29.0131 33.7062 28.0186L33.0899 24.709C32.9802 24.1198 33.1743 23.5145 33.605 23.1032L36.0239 20.7926Z" fill="#98A2B3"/>
</svg>
