<svg width="13" height="20" viewBox="0 0 13 20" fill="none" xmlns="http://www.w3.org/2000/svg">
<path d="M9.37241 10.669H9.2744C9.0362 9.43079 8.0585 8.4531 6.82034 8.21489C6.87858 7.307 5.58999 7.30755 5.64846 8.21489C4.4103 8.4531 3.43261 9.43079 3.1944 10.669C2.351 10.6019 2.258 11.7898 3.0964 11.8408H9.37245C10.1468 11.8131 10.1505 10.6983 9.37241 10.669ZM4.40112 10.669C4.97796 8.89485 7.49159 8.89599 8.06768 10.669H4.40112Z" fill="#D0D5DD"/>
<path d="M9.37239 13.8071H3.09633C2.32169 13.835 2.31852 14.9498 3.09633 14.979H9.37239C10.147 14.9511 10.1502 13.8363 9.37239 13.8071Z" fill="#D0D5DD"/>
<path d="M7.48959 16.3179H4.97916C4.20346 16.3463 4.20236 17.4609 4.97916 17.4897H7.48955C7.81314 17.4897 8.07549 17.2274 8.07549 16.9038C8.07549 16.5802 7.81318 16.3179 7.48959 16.3179Z" fill="#D0D5DD"/>
<path d="M11.8828 4.39324H9.95832V0.585939C9.95832 0.382854 9.85316 0.19426 9.68043 0.087502C9.50769 -0.0192558 9.29195 -0.0289433 9.11035 0.0618379L0.323906 4.45508C0.125391 4.55434 0 4.75723 0 4.97918V19.4141C0 19.7377 0.262344 20 0.585937 20H11.8828C12.2064 20 12.4687 19.7377 12.4687 19.4141V4.97918C12.4687 4.65555 12.2064 4.39324 11.8828 4.39324ZM8.78644 1.53399V4.3932H3.06801L8.78644 1.53399ZM11.2969 18.8281H1.17187V5.56512H11.2969V18.8281Z" fill="#667085"/>
</svg>
