<svg width="15" height="15" viewBox="0 0 15 15" fill="none" xmlns="http://www.w3.org/2000/svg">
<g clip-path="url(#clip0_521_1213)">
<path d="M6.90376 12.4521C6.90376 12.4521 6.02876 12.4521 6.02876 11.5771C6.02876 10.7021 6.90376 8.07715 10.4038 8.07715C13.9038 8.07715 14.7788 10.7021 14.7788 11.5771C14.7788 12.4521 13.9038 12.4521 13.9038 12.4521H6.90376ZM10.4038 7.20215C11.1 7.20215 11.7676 6.92559 12.2599 6.4333C12.7522 5.94102 13.0288 5.27334 13.0288 4.57715C13.0288 3.88096 12.7522 3.21328 12.2599 2.72099C11.7676 2.22871 11.1 1.95215 10.4038 1.95215C9.70757 1.95215 9.03989 2.22871 8.54761 2.72099C8.05532 3.21328 7.77876 3.88096 7.77876 4.57715C7.77876 5.27334 8.05532 5.94102 8.54761 6.4333C9.03989 6.92559 9.70757 7.20215 10.4038 7.20215ZM5.34276 12.4521C5.21305 12.179 5.14836 11.8795 5.15376 11.5771C5.15376 10.3915 5.74876 9.1709 6.84776 8.32215C6.29922 8.15313 5.72772 8.07048 5.15376 8.07715C1.65376 8.07715 0.778763 10.7021 0.778763 11.5771C0.778763 12.4521 1.65376 12.4521 1.65376 12.4521H5.34276ZM4.71626 7.20215C5.29642 7.20215 5.85282 6.97168 6.26306 6.56144C6.67329 6.15121 6.90376 5.59481 6.90376 5.01465C6.90376 4.43449 6.67329 3.87809 6.26306 3.46785C5.85282 3.05762 5.29642 2.82715 4.71626 2.82715C4.1361 2.82715 3.5797 3.05762 3.16947 3.46785C2.75923 3.87809 2.52876 4.43449 2.52876 5.01465C2.52876 5.59481 2.75923 6.15121 3.16947 6.56144C3.5797 6.97168 4.1361 7.20215 4.71626 7.20215Z" fill="#9FA9B4"/>
</g>
<defs>
<clipPath id="clip0_521_1213">
<rect width="14" height="14" fill="white" transform="translate(0.778763 0.202148)"/>
</clipPath>
</defs>
</svg>
