<svg width="16" height="18" viewBox="0 0 16 18" fill="none" xmlns="http://www.w3.org/2000/svg">
<path d="M14.3333 16.5C14.3333 15.337 14.3333 14.7555 14.1898 14.2824C13.8666 13.217 13.0329 12.3834 11.9676 12.0602C11.4944 11.9167 10.913 11.9167 9.74998 11.9167H5.58332C4.42035 11.9167 3.83886 11.9167 3.3657 12.0602C2.30036 12.3834 1.46668 13.217 1.14352 14.2824C0.999985 14.7555 0.999985 15.337 0.999985 16.5M11.4167 5.25C11.4167 7.32107 9.73772 9 7.66665 9C5.59558 9 3.91665 7.32107 3.91665 5.25C3.91665 3.17893 5.59558 1.5 7.66665 1.5C9.73772 1.5 11.4167 3.17893 11.4167 5.25Z" stroke="#667085" stroke-width="1.66667" stroke-linecap="round" stroke-linejoin="round"/>
</svg>
