<svg width="21" height="21" viewBox="0 0 21 21" fill="none" xmlns="http://www.w3.org/2000/svg">
<g id="phone">
<path id="Icon" d="M7.48356 8.00572C8.06356 9.21374 8.85422 10.3459 9.85553 11.3473C10.8568 12.3486 11.9891 13.1392 13.1971 13.7192C13.301 13.7691 13.3529 13.7941 13.4187 13.8132C13.6523 13.8813 13.9392 13.8324 14.137 13.6907C14.1927 13.6509 14.2403 13.6032 14.3356 13.508C14.6269 13.2166 14.7726 13.071 14.9191 12.9757C15.4715 12.6166 16.1837 12.6166 16.7361 12.9757C16.8825 13.071 17.0282 13.2166 17.3196 13.508L17.4819 13.6704C17.9248 14.1132 18.1462 14.3347 18.2665 14.5725C18.5058 15.0455 18.5058 15.604 18.2665 16.077C18.1462 16.3148 17.9248 16.5362 17.4819 16.9791L17.3506 17.1105C16.9092 17.5518 16.6886 17.7725 16.3885 17.941C16.0556 18.128 15.5385 18.2625 15.1567 18.2614C14.8126 18.2604 14.5774 18.1936 14.107 18.0601C11.5792 17.3426 9.19387 15.9889 7.20388 13.9989C5.2139 12.0089 3.86017 9.62362 3.1427 7.09579C3.00919 6.62542 2.94244 6.39023 2.94141 6.04611C2.94028 5.66426 3.07475 5.14718 3.26176 4.81426C3.4303 4.51424 3.65098 4.29356 4.09233 3.85221L4.22369 3.72084C4.66656 3.27798 4.888 3.05654 5.12581 2.93625C5.59878 2.69703 6.15734 2.69703 6.6303 2.93625C6.86812 3.05654 7.08955 3.27798 7.53242 3.72084L7.69481 3.88324C7.98615 4.17458 8.13182 4.32024 8.22706 4.46673C8.58622 5.01913 8.58622 5.73128 8.22706 6.28369C8.13182 6.43018 7.98615 6.57584 7.69481 6.86718C7.59955 6.96244 7.55192 7.01007 7.51206 7.06575C7.37038 7.26361 7.32146 7.55049 7.38957 7.78412C7.40873 7.84986 7.43367 7.90182 7.48356 8.00572Z" stroke="#0D6EFD" stroke-width="2" stroke-linecap="round" stroke-linejoin="round"/>
</g>
</svg>
