<svg width="21" height="34" viewBox="0 0 21 34" fill="none" xmlns="http://www.w3.org/2000/svg">
<path d="M15.6206 17.7863H15.4573C15.0602 15.7227 13.4308 14.0932 11.3672 13.6962C11.4642 12.183 9.31657 12.1839 9.41403 13.6962C7.35042 14.0932 5.72093 15.7227 5.32392 17.7863C3.91826 17.6745 3.76325 19.6543 5.16058 19.7394H15.6207C16.9112 19.6932 16.9174 17.8352 15.6206 17.7863ZM7.33512 17.7863C8.29651 14.8294 12.4859 14.8313 13.4461 17.7863H7.33512Z" fill="#66A4FF"/>
<path d="M15.6207 23.0162H5.1606C3.86952 23.0627 3.86424 24.9207 5.1606 24.9694H15.6207C16.9118 24.9228 16.917 23.0649 15.6207 23.0162Z" fill="#66A4FF"/>
<path d="M12.4826 27.2003H8.29856C7.00572 27.2476 7.0039 29.1054 8.29856 29.1534H12.4825C13.0219 29.1534 13.4591 28.7162 13.4591 28.1769C13.4591 27.6376 13.0219 27.2003 12.4826 27.2003Z" fill="#66A4FF"/>
<path d="M19.8047 7.32635H16.5972V0.980838C16.5972 0.642362 16.4219 0.328039 16.134 0.150109C15.8462 -0.0278206 15.4866 -0.0439664 15.1839 0.107336L0.539844 7.42941C0.208984 7.59484 0 7.93299 0 8.30291V32.361C0 32.9004 0.437239 33.3376 0.976562 33.3376H19.8047C20.344 33.3376 20.7812 32.9004 20.7812 32.361V8.30291C20.7812 7.76352 20.344 7.32635 19.8047 7.32635ZM14.6441 2.56092V7.32628H5.11334L14.6441 2.56092ZM18.8281 31.3845H1.95312V9.27947H18.8281V31.3845Z" fill="#0F5DD1"/>
</svg>
