<svg width="15" height="15" viewBox="0 0 15 15" fill="none" xmlns="http://www.w3.org/2000/svg">
<path d="M3.80603 12.4521V8.36882C3.80603 8.04798 3.92036 7.77323 4.14903 7.54457C4.3777 7.3159 4.65225 7.20176 4.9727 7.20215H5.55603V6.03548H4.9727C4.65186 6.03548 4.37711 5.92115 4.14845 5.69248C3.91978 5.46382 3.80564 5.18926 3.80603 4.86882V3.11882C3.80603 2.79798 3.92036 2.52323 4.14903 2.29457C4.3777 2.0659 4.65225 1.95176 4.9727 1.95215H10.806C11.1269 1.95215 11.4016 2.06648 11.6303 2.29515C11.8589 2.52382 11.9731 2.79837 11.9727 3.11882V4.86882C11.9727 5.18965 11.8584 5.4644 11.6297 5.69307C11.401 5.92173 11.1265 6.03587 10.806 6.03548H10.2227V7.20215H10.806C11.1269 7.20215 11.4016 7.31648 11.6303 7.54515C11.8589 7.77382 11.9731 8.04837 11.9727 8.36882V12.4521H10.806V10.7021H4.9727V12.4521H3.80603ZM6.7227 7.20215H9.05603V6.03548H6.7227V7.20215Z" fill="#9FA9B4"/>
</svg>
