<svg width="22" height="22" viewBox="0 0 22 22" fill="none" xmlns="http://www.w3.org/2000/svg">
<path fill-rule="evenodd" clip-rule="evenodd" d="M10.0508 6.62794C10.2131 6.26272 10.5753 6.02734 10.975 6.02734C11.8774 6.02734 12.609 6.75892 12.609 7.66137V8.67886H13.6148C14.7403 8.67886 15.6009 9.68206 15.4298 10.7945L15.0219 13.446C14.884 14.3418 14.1132 15.0031 13.2068 15.0031H8.12115C7.31615 15.0031 6.66357 14.3505 6.66357 13.5455V10.894C6.66357 10.089 7.31615 9.43643 8.12115 9.43643H8.8026L10.0508 6.62794ZM9.95751 13.6031H13.2068C13.4222 13.6031 13.6054 13.446 13.6381 13.2331L14.0461 10.5816C14.0867 10.3172 13.8822 10.0789 13.6148 10.0789H12.2878C11.692 10.0789 11.209 9.59587 11.209 9.00007V7.66137C11.209 7.61788 11.1972 7.57716 11.1765 7.54227L9.99716 10.1958C9.98498 10.2232 9.97174 10.2499 9.95751 10.2759V13.6031ZM8.55751 10.8364V13.6031H8.12115C8.08935 13.6031 8.06357 13.5773 8.06357 13.5455V10.894C8.06357 10.8622 8.08935 10.8364 8.12115 10.8364H8.55751Z" fill="#0F5DD1"/>
<path fill-rule="evenodd" clip-rule="evenodd" d="M13.9096 2.04502L15.5762 1.73066C16.9331 1.4747 18.2256 2.41376 18.4015 3.78337L18.6175 5.46551L20.1506 6.19077C21.3988 6.78128 21.8925 8.30071 21.2298 9.51213L20.4158 11L21.2298 12.4878C21.8925 13.6993 21.3988 15.2187 20.1506 15.8092L18.6175 16.5345L18.4015 18.2166C18.2256 19.5862 16.9331 20.5253 15.5762 20.2693L13.9096 19.955L12.7461 21.1889C11.7988 22.1935 10.2012 22.1935 9.25385 21.1889L8.09034 19.955L6.42377 20.2693C5.06684 20.5253 3.77434 19.5862 3.59845 18.2166L3.38243 16.5345L1.84937 15.8092C0.60115 15.2187 0.107456 13.6993 0.770198 12.4878L1.58417 11L0.770198 9.51213C0.107457 8.30071 0.601147 6.78128 1.84937 6.19077L3.38243 5.46551L3.59845 3.78337C3.77434 2.41376 5.06684 1.4747 6.42377 1.73065L8.09034 2.04502L9.25384 0.811108C10.2012 -0.193545 11.7988 -0.193548 12.7461 0.811107L13.9096 2.04502ZM11.7275 1.77157C11.3328 1.35297 10.6671 1.35297 10.2724 1.77157L8.95879 3.16469C8.72493 3.4127 8.38085 3.5245 8.04587 3.46132L6.16427 3.10639C5.59888 2.99975 5.06034 3.39102 4.98705 3.96169L4.74316 5.86088C4.69974 6.19899 4.48708 6.49169 4.17894 6.63746L2.44807 7.4563C1.92798 7.70235 1.72227 8.33544 1.99841 8.8402L2.91742 10.52C3.08102 10.8191 3.08102 11.1809 2.91742 11.4799L1.99841 13.1598C1.72227 13.6645 1.92798 14.2976 2.44807 14.5437L4.17894 15.3625C4.48708 15.5083 4.69974 15.801 4.74316 16.1391L4.98705 18.0383C5.06034 18.609 5.59888 19.0002 6.16427 18.8936L8.04587 18.5387C8.38085 18.4755 8.72493 18.5873 8.95879 18.8353L10.2724 20.2284C10.6671 20.647 11.3328 20.647 11.7275 20.2284L13.0412 18.8353C13.275 18.5873 13.6191 18.4755 13.9541 18.5387L15.8357 18.8936C16.4011 19.0002 16.9396 18.609 17.0129 18.0383L17.2568 16.1391C17.3002 15.801 17.5129 15.5083 17.821 15.3625L19.5519 14.5437C20.072 14.2976 20.2777 13.6645 20.0016 13.1598L19.0826 11.4799C18.9189 11.1809 18.9189 10.8191 19.0826 10.52L20.0016 8.8402C20.2777 8.33544 20.072 7.70235 19.5519 7.4563L17.821 6.63746C17.5129 6.49169 17.3002 6.19899 17.2568 5.86088L17.0129 3.96169C16.9396 3.39102 16.4011 2.99975 15.8357 3.10639L13.9541 3.46132C13.6191 3.5245 13.275 3.4127 13.0412 3.16469L11.7275 1.77157Z" fill="#99C2FD"/>
</svg>
