<svg width="36" height="37" viewBox="0 0 36 37" fill="none" xmlns="http://www.w3.org/2000/svg">
<path fill-rule="evenodd" clip-rule="evenodd" d="M16.4181 11.2986C16.6887 10.6899 17.2923 10.2976 17.9584 10.2976C19.4625 10.2976 20.6818 11.5169 20.6818 13.021V14.7168H22.358C24.2338 14.7168 25.6683 16.3888 25.3831 18.2428L24.7032 22.662C24.4735 24.155 23.1888 25.2572 21.6782 25.2572H13.202C11.8603 25.2572 10.7727 24.1696 10.7727 22.8279V18.4087C10.7727 17.0671 11.8603 15.9794 13.202 15.9794H14.3378L16.4181 11.2986ZM16.2626 22.9239H21.6782C22.0371 22.9239 22.3424 22.662 22.397 22.3072L23.0769 17.888C23.1446 17.4474 22.8038 17.0501 22.358 17.0501H20.1464C19.1534 17.0501 18.3485 16.2452 18.3485 15.2522V13.021C18.3485 12.9485 18.3287 12.8806 18.2942 12.8225L16.3287 17.245C16.3084 17.2907 16.2863 17.3352 16.2626 17.3785V22.9239ZM13.9293 18.3128V22.9239H13.202C13.149 22.9239 13.106 22.8809 13.106 22.8279V18.4087C13.106 18.3557 13.149 18.3128 13.202 18.3128H13.9293Z" fill="#0F5DD1"/>
<path fill-rule="evenodd" clip-rule="evenodd" d="M22.8494 3.66048L25.627 3.13654C27.8885 2.70995 30.0427 4.27504 30.3359 6.55773L30.6959 9.3613L33.251 10.5701C35.3314 11.5543 36.1542 14.0866 35.0496 16.1057L33.693 18.5854L35.0496 21.0652C36.1542 23.0842 35.3314 25.6166 33.251 26.6008L30.6959 27.8096L30.3359 30.6131C30.0427 32.8958 27.8886 34.4609 25.627 34.0343L22.8494 33.5104L20.9102 35.5669C19.3313 37.2413 16.6686 37.2413 15.0897 35.5669L13.1506 33.5104L10.373 34.0343C8.11141 34.4609 5.95723 32.8958 5.66409 30.6131L5.30406 27.8096L2.74895 26.6008C0.668583 25.6166 -0.154241 23.0842 0.95033 21.0652L2.30696 18.5854L0.950331 16.1057C-0.154238 14.0866 0.668578 11.5543 2.74895 10.5701L5.30406 9.3613L5.66409 6.55773C5.95723 4.27505 8.1114 2.70995 10.373 3.13654L13.1506 3.66048L15.0897 1.60396C16.6686 -0.0704584 19.3313 -0.0704645 20.9102 1.60396L22.8494 3.66048ZM19.2126 3.20473C18.5547 2.50706 17.4452 2.50706 16.7874 3.20474L14.598 5.52661C14.2082 5.93996 13.6347 6.12629 13.0765 6.02098L9.94044 5.42944C8.99813 5.25169 8.10056 5.90382 7.97842 6.85494L7.57193 10.0203C7.49956 10.5838 7.14513 11.0716 6.63157 11.3146L3.74678 12.6793C2.87996 13.0894 2.53712 14.1445 2.99735 14.9858L4.52903 17.7855C4.8017 18.2839 4.8017 18.8869 4.52903 19.3853L2.99735 22.1851C2.53712 23.0263 2.87996 24.0815 3.74678 24.4916L6.63157 25.8563C7.14513 26.0993 7.49956 26.5871 7.57193 27.1506L7.97842 30.3159C8.10056 31.267 8.99813 31.9192 9.94045 31.7414L13.0765 31.1499C13.6347 31.0446 14.2082 31.2309 14.598 31.6443L16.7874 33.9661C17.4452 34.6638 18.5547 34.6638 19.2126 33.9661L21.402 31.6443C21.7917 31.2309 22.3652 31.0446 22.9235 31.1499L26.0595 31.7414C27.0018 31.9192 27.8994 31.267 28.0215 30.3159L28.428 27.1506C28.5004 26.5871 28.8548 26.0993 29.3684 25.8563L32.2532 24.4916C33.12 24.0815 33.4628 23.0263 33.0026 22.1851L31.4709 19.3853C31.1982 18.8869 31.1982 18.2839 31.4709 17.7855L33.0026 14.9858C33.4628 14.1445 33.12 13.0894 32.2532 12.6793L29.3684 11.3145C28.8548 11.0716 28.5004 10.5838 28.428 10.0203L28.0215 6.85493C27.8994 5.90382 27.0018 5.25169 26.0595 5.42944L22.9235 6.02098C22.3652 6.12629 21.7917 5.93996 21.402 5.52661L19.2126 3.20473Z" fill="#99C2FD"/>
</svg>
