<svg width="25" height="24" viewBox="0 0 25 24" fill="none" xmlns="http://www.w3.org/2000/svg">
<path d="M6.01747 19.4384C6.62579 18.0052 8.04609 17 9.70117 17H15.7012C17.3562 17 18.7765 18.0052 19.3849 19.4384M16.7012 9.5C16.7012 11.7091 14.9103 13.5 12.7012 13.5C10.492 13.5 8.70117 11.7091 8.70117 9.5C8.70117 7.29086 10.492 5.5 12.7012 5.5C14.9103 5.5 16.7012 7.29086 16.7012 9.5ZM22.7012 12C22.7012 17.5228 18.224 22 12.7012 22C7.17832 22 2.70117 17.5228 2.70117 12C2.70117 6.47715 7.17832 2 12.7012 2C18.224 2 22.7012 6.47715 22.7012 12Z" stroke="#98A2B3" stroke-width="2" stroke-linecap="round" stroke-linejoin="round"/>
</svg>
