<svg width="39" height="32" viewBox="0 0 39 32" fill="none" xmlns="http://www.w3.org/2000/svg">
<g id="Frame 5">
<path id="Vector 2" d="M16.4382 2.25H23.4382" stroke="white" stroke-width="3" stroke-linecap="round" stroke-linejoin="round"/>
<g id="Rectangle 1">
<mask id="path-2-inside-1_1387_11688" fill="white">
<path d="M3.75069 23.6875C3.75069 14.7474 10.9981 7.5 19.9382 7.5C28.8783 7.5 36.1257 14.7474 36.1257 23.6875V24.1667C36.1257 24.6269 35.7526 25 35.2924 25H4.58403C4.12379 25 3.75069 24.6269 3.75069 24.1667V23.6875Z"/>
</mask>
<path d="M3.75069 23.6875C3.75069 14.7474 10.9981 7.5 19.9382 7.5C28.8783 7.5 36.1257 14.7474 36.1257 23.6875V24.1667C36.1257 24.6269 35.7526 25 35.2924 25H4.58403C4.12379 25 3.75069 24.6269 3.75069 24.1667V23.6875Z" stroke="white" stroke-width="6" stroke-linejoin="round" mask="url(#path-2-inside-1_1387_11688)"/>
</g>
<path id="Vector 1" d="M2.43819 30.25H37.4382" stroke="white" stroke-width="3" stroke-linecap="round" stroke-linejoin="round"/>
</g>
</svg>
