<svg width="23" height="20" viewBox="0 0 23 20" fill="none" xmlns="http://www.w3.org/2000/svg">
<path d="M10.5 9H5.7C4.57989 9 4.01984 9 3.59202 9.21799C3.21569 9.40973 2.90973 9.71569 2.71799 10.092C2.5 10.5198 2.5 11.0799 2.5 12.2V19M20.5 19V4.2C20.5 3.0799 20.5 2.51984 20.282 2.09202C20.0903 1.71569 19.7843 1.40973 19.408 1.21799C18.9802 1 18.4201 1 17.3 1H13.7C12.5799 1 12.0198 1 11.592 1.21799C11.2157 1.40973 10.9097 1.71569 10.718 2.09202C10.5 2.51984 10.5 3.0799 10.5 4.2V19M21.5 19H1.5M14 5H17M14 9H17M14 13H17" stroke="#4D6DEF" stroke-width="2" stroke-linecap="round" stroke-linejoin="round"/>
</svg>
