<svg width="28" height="28" viewBox="0 0 28 28" fill="none" xmlns="http://www.w3.org/2000/svg">
<path d="M13.8833 10.5V6.81852C13.8833 5.65693 13.8833 5.07613 13.6544 4.63246C13.4531 4.2422 13.1318 3.92491 12.7367 3.72606C12.2875 3.5 11.6994 3.5 10.5233 3.5H6.74331C5.5672 3.5 4.97915 3.5 4.52993 3.72606C4.13479 3.92491 3.81353 4.2422 3.6122 4.63246C3.38331 5.07613 3.38331 5.65693 3.38331 6.81852V22.1667M11.6666 22.1667H2.33331M7.05831 7.64815H10.2083M7.05831 11.7963H10.2083M7.05831 15.9444H10.2083" stroke="#0D6EFD" stroke-width="2" stroke-linecap="round" stroke-linejoin="round"/>
<path d="M25.6667 23.3333L22.8561 20.5227M24.1818 17.3409C24.1818 19.8304 22.1637 21.8485 19.6743 21.8485C17.1848 21.8485 15.1667 19.8304 15.1667 17.3409C15.1667 14.8514 17.1848 12.8333 19.6743 12.8333C22.1637 12.8333 24.1818 14.8514 24.1818 17.3409Z" stroke="#0D6EFD" stroke-width="2" stroke-linecap="round" stroke-linejoin="round"/>
</svg>
