<svg width="29" height="28" viewBox="0 0 29 28" fill="none" xmlns="http://www.w3.org/2000/svg">
<path d="M26.4654 25.0105H25.1772V19.3028C25.572 18.9769 25.7969 18.5148 25.7969 18.0214V16.1013C25.7969 15.0552 24.8648 14.2041 23.7191 14.2041H22.7469V9.53655C22.7469 8.75626 22.1122 8.12145 21.3321 8.12145H21.2438V7.61071C22.1238 7.30219 22.7568 6.46352 22.7568 5.47922C22.7568 5.14876 22.6607 4.59061 21.9117 3.19611C21.5256 2.47729 21.145 1.87281 21.129 1.84739C20.9926 1.63117 20.7547 1.5 20.4991 1.5C20.2434 1.5 20.0056 1.63117 19.8692 1.84739C19.8531 1.87281 19.4726 2.47734 19.0864 3.19611C18.3373 4.59061 18.2413 5.14876 18.2413 5.47922C18.2413 6.46347 18.8743 7.30219 19.7543 7.61071V8.12145H19.666C18.8859 8.12145 18.2512 8.75626 18.2512 9.53655V14.2041H16.7478V9.53655C16.7478 8.75626 16.1131 8.12145 15.333 8.12145H15.2447V7.61071C16.1246 7.30219 16.7577 6.46352 16.7577 5.47922C16.7577 5.14876 16.6616 4.59061 15.9125 3.19611C15.5265 2.47729 15.1459 1.87281 15.1299 1.84744C14.9935 1.63117 14.7557 1.5 14.5 1.5C14.2443 1.5 14.0065 1.63117 13.8701 1.84739C13.854 1.87281 13.4735 2.47734 13.0873 3.19611C12.3382 4.59061 12.2422 5.14876 12.2422 5.47922C12.2422 6.46347 12.8752 7.30219 13.7552 7.61071V8.12145H13.6669C12.8868 8.12145 12.2521 8.75626 12.2521 9.53655V14.2041H10.7487V9.53655C10.7487 8.75626 10.114 8.12145 9.33387 8.12145H9.2456V7.61071C10.1256 7.30219 10.7586 6.46352 10.7586 5.47922C10.7586 5.14876 10.6625 4.59061 9.91348 3.19611C9.52736 2.47729 9.14684 1.87281 9.13076 1.84739C8.99437 1.63117 8.75655 1.5 8.50086 1.5C8.24517 1.5 8.0074 1.63117 7.87096 1.84739C7.85493 1.87281 7.47442 2.47734 7.08825 3.19611C6.33914 4.59061 6.24307 5.14876 6.24307 5.47922C6.24307 6.46347 6.87609 7.30219 7.75607 7.61071V8.12145H7.6678C6.88766 8.12145 6.253 8.75626 6.253 9.53655V14.2041H5.28077C4.13512 14.2041 3.20301 15.0552 3.20301 16.1013V18.0214C3.20301 18.5148 3.42787 18.9769 3.82268 19.3028V25.0105H2.53453C2.12324 25.0105 1.78979 25.344 1.78979 25.7553C1.78979 26.1666 2.12324 26.5 2.53453 26.5H26.4654C26.8767 26.5 27.2101 26.1666 27.2101 25.7553C27.2101 25.344 26.8767 25.0105 26.4654 25.0105ZM19.7308 5.47977C19.7354 5.2419 20.0552 4.52373 20.4992 3.71336C20.9429 4.52328 21.2626 5.24116 21.2673 5.47962C21.2671 5.90338 20.9226 6.24809 20.4991 6.24809C20.0755 6.24809 19.7308 5.90318 19.7308 5.47977ZM19.7407 9.61092H21.2574V14.1998H19.7407V9.61092ZM13.7317 5.47977C13.7363 5.2419 14.0561 4.52378 14.5001 3.71341C14.9438 4.52328 15.2634 5.24116 15.2682 5.47962C15.268 5.90338 14.9235 6.24809 14.5 6.24809C14.0764 6.24809 13.7317 5.90318 13.7317 5.47977ZM13.7416 9.61092H15.2583V14.1998H13.7416V9.61092ZM7.73254 5.47977C7.73716 5.2419 8.057 4.52373 8.50096 3.71336C8.94467 4.52328 9.26432 5.24116 9.26908 5.47962C9.26888 5.90338 8.92432 6.24809 8.50081 6.24809C8.07721 6.24809 7.73254 5.90318 7.73254 5.47977ZM7.74247 9.61092H9.2592V14.1998H7.74247V9.61092ZM23.6877 25.0105H5.31215V19.733C5.42863 19.7196 5.54475 19.6961 5.6591 19.6622L7.53911 19.1057C8.62558 18.7842 9.82212 18.7842 10.9085 19.1057L12.3924 19.545C13.072 19.7462 13.7859 19.8467 14.4999 19.8467C15.2139 19.8467 15.9279 19.7462 16.6074 19.545L18.0913 19.1057C19.1776 18.7841 20.3742 18.7841 21.4607 19.1057L23.3406 19.6622C23.455 19.6961 23.5711 19.7196 23.6876 19.733V25.0105H23.6877ZM24.3074 18.0214C24.3074 18.0834 24.2572 18.1339 24.2152 18.1653C24.1213 18.2354 23.9533 18.2902 23.7635 18.2341L21.8835 17.6776C20.5245 17.2752 19.0276 17.2752 17.6685 17.6776L16.1846 18.1169C15.0983 18.4384 13.9016 18.4385 12.8152 18.1169L11.3313 17.6776C10.6517 17.4763 9.9379 17.3758 9.2238 17.3758C8.5099 17.3758 7.79574 17.4764 7.11635 17.6776L5.23628 18.2341C5.04653 18.2903 4.87851 18.2353 4.78463 18.1653C4.74257 18.1339 4.69248 18.0834 4.69248 18.0214V16.1013C4.69248 15.9085 4.93407 15.6936 5.28077 15.6936H23.7191C24.0658 15.6936 24.3074 15.9085 24.3074 16.1013V18.0214H24.3074Z" fill="#98A2B3"/>
</svg>
