<svg width="29" height="28" viewBox="0 0 29 28" fill="none" xmlns="http://www.w3.org/2000/svg">
<g clip-path="url(#clip0_3208_111413)">
<path d="M22.6483 16.4462C22.4532 14.9892 21.3461 13.8176 19.9221 13.5241V9.7589C19.9221 9.39901 19.6306 9.10695 19.2702 9.10695H18.7887V5.73845C18.7887 5.37857 18.4966 5.0865 18.1368 5.0865H15.7353V4.15195C15.7353 3.79207 15.4432 3.5 15.0833 3.5C14.7234 3.5 14.4314 3.79207 14.4314 4.15195V5.0865H12.0299C11.67 5.0865 11.378 5.37857 11.378 5.73845V9.10695H10.8965C10.5361 9.10695 10.2445 9.39901 10.2445 9.7589V13.9035C9.17942 14.6011 8.3668 15.618 7.91137 16.7847L4.82969 15.9121C4.41366 15.7942 4 16.1064 4 16.5392V25.0147C4 25.3746 4.29207 25.6667 4.65195 25.6667H25.5147C25.8746 25.6667 26.1667 25.3746 26.1667 25.0147V19.4512C26.1667 17.5801 24.4861 16.1529 22.6483 16.4462ZM24.8628 24.3628C24.362 24.3628 21.8149 24.3628 21.3857 24.3628V19.4512C21.3857 18.4911 22.1667 17.7127 23.1242 17.7127C24.083 17.7127 24.8628 18.4925 24.8628 19.4512V24.3628ZM18.2127 24.3628V17.894C18.2127 17.5336 17.9206 17.242 17.5607 17.242H17.0727V16.9087C17.0727 15.7223 18.0378 14.7572 19.2242 14.7572C20.3473 14.7572 21.3755 15.6408 21.3755 16.9625C20.5937 17.5136 20.0816 18.4238 20.0816 19.4512V24.3628C19.887 24.3628 18.396 24.3628 18.2127 24.3628ZM5.3039 17.4015L7.56839 18.0432C7.51445 18.3743 7.48705 18.7124 7.48705 19.055V24.3628H5.3039V17.4015ZM8.79112 24.3628V19.055C8.79112 16.7411 10.4453 14.4781 13.2895 14.1822V24.3628C12.7803 24.3628 9.29814 24.3628 8.79112 24.3628ZM11.5484 10.4108H18.6182V13.5062C17.0005 13.7936 15.7688 15.2096 15.7688 16.9087V17.242H14.5936V13.4967C14.5936 13.1369 14.3013 12.8448 13.9416 12.8448C13.097 12.8448 12.2898 12.9852 11.5484 13.2534C11.5484 12.9361 11.5484 10.7758 11.5484 10.4108ZM12.682 6.3904H17.4846V9.10695H12.682V6.3904ZM14.5936 18.5459H16.9088V24.3628C16.4688 24.3628 15.0695 24.3628 14.5936 24.3628V18.5459Z" fill="#98A2B3"/>
<path d="M23.5153 19.5091H22.733C22.374 19.5091 22.0811 19.8007 22.0811 20.161C22.0811 20.5248 22.377 20.813 22.733 20.813H23.5153C23.8752 20.813 24.1673 20.5214 24.1673 20.161C24.1673 19.8012 23.8752 19.5091 23.5153 19.5091Z" fill="#98A2B3"/>
<path d="M23.5153 21.5953H22.733C22.374 21.5953 22.0811 21.8869 22.0811 22.2475C22.0811 22.6111 22.377 22.8994 22.733 22.8994H23.5153C23.8752 22.8994 24.1673 22.6077 24.1673 22.2475C24.1673 21.8876 23.8752 21.5953 23.5153 21.5953Z" fill="#98A2B3"/>
<path d="M16.0968 6.9989C15.8706 6.9989 14.3047 6.9989 14.0698 6.9989C13.7099 6.9989 13.4178 7.29097 13.4178 7.65085C13.4178 8.01074 13.7099 8.3028 14.0698 8.3028H16.0968C16.4567 8.3028 16.7488 8.01074 16.7488 7.65085C16.7488 7.29097 16.4567 6.9989 16.0968 6.9989Z" fill="#98A2B3"/>
<path d="M12.9827 10.8998H12.6059C12.246 10.8998 11.954 11.1918 11.954 11.5517C11.954 11.9121 12.246 12.2037 12.6059 12.2037H12.9827C13.3426 12.2037 13.6347 11.9121 13.6347 11.5517C13.6347 11.1918 13.3426 10.8998 12.9827 10.8998Z" fill="#98A2B3"/>
<path d="M14.8951 12.2037H15.2716C15.6318 12.2037 15.9235 11.9121 15.9235 11.5517C15.9235 11.1918 15.6318 10.8998 15.2716 10.8998H14.8951C14.5349 10.8998 14.2432 11.1918 14.2432 11.5517C14.2432 11.9121 14.5349 12.2037 14.8951 12.2037Z" fill="#98A2B3"/>
<path d="M17.1839 12.2037H17.5607C17.9206 12.2037 18.2127 11.9121 18.2127 11.5517C18.2127 11.1918 17.9206 10.8998 17.5607 10.8998H17.1839C16.824 10.8998 16.532 11.1918 16.532 11.5517C16.532 11.9121 16.824 12.2037 17.1839 12.2037Z" fill="#98A2B3"/>
<path d="M12.0299 17.9374C12.3898 17.9374 12.682 17.6454 12.682 17.2855C12.682 17.1162 12.682 17.0556 12.682 16.9303C12.682 16.5704 12.3898 16.2784 12.0299 16.2784C11.6702 16.2784 11.3779 16.5701 11.3779 16.9303V17.2855C11.3779 17.6482 11.6725 17.9374 12.0299 17.9374Z" fill="#98A2B3"/>
<path d="M12.0299 20.5018C12.3896 20.5018 12.682 20.2099 12.682 19.8499V19.4947C12.682 19.1353 12.3899 18.8428 12.0299 18.8428C11.671 18.8428 11.3779 19.134 11.3779 19.4947V19.8499C11.3779 20.2126 11.6725 20.5018 12.0299 20.5018Z" fill="#98A2B3"/>
<path d="M10.0415 20.5018C10.4014 20.5018 10.6935 20.2098 10.6935 19.8499V19.4947C10.6935 19.1343 10.4006 18.8428 10.0415 18.8428C9.68232 18.8428 9.3894 19.134 9.3894 19.4947V19.8499C9.3894 20.2104 9.68198 20.5018 10.0415 20.5018Z" fill="#98A2B3"/>
<path d="M12.0299 23.0771C12.3896 23.0771 12.682 22.7851 12.682 22.4252V22.07C12.682 21.7105 12.3899 21.4181 12.0299 21.4181C11.6703 21.4181 11.3779 21.7095 11.3779 22.07V22.4252C11.3779 22.7856 11.6707 23.0771 12.0299 23.0771Z" fill="#98A2B3"/>
<path d="M10.6935 22.4252V22.07C10.6935 21.71 10.4014 21.4181 10.0415 21.4181C9.68232 21.4181 9.3894 21.7091 9.3894 22.07V22.4252C9.3894 22.7856 9.68198 23.0771 10.0415 23.0771C10.3962 23.0771 10.6935 22.7896 10.6935 22.4252Z" fill="#98A2B3"/>
<path d="M19.2242 15.5965C18.8648 15.5965 18.5723 15.8881 18.5723 16.2484V16.61C18.5723 16.9975 18.9085 17.2916 19.2702 17.2603C19.6088 17.2368 19.8762 16.9543 19.8762 16.61V16.2484C19.8762 15.8875 19.5831 15.5965 19.2242 15.5965Z" fill="#98A2B3"/>
</g>
<defs>
<clipPath id="clip0_3208_111413">
<rect width="22.1667" height="22.1667" fill="white" transform="translate(4 3.5)"/>
</clipPath>
</defs>
</svg>
