<svg width="29" height="28" viewBox="0 0 29 28" fill="none" xmlns="http://www.w3.org/2000/svg">
<path d="M10.6199 9.86328C10.2869 9.53019 9.71868 9.65197 9.55274 10.0944L4.0426 24.7881C3.84739 25.3086 4.35715 25.8198 4.87864 25.6241C5.61663 25.3474 18.9801 20.3361 19.5723 20.114C20.0127 19.9489 20.1382 19.3816 19.8034 19.0468L10.6199 9.86328ZM10.4146 11.4947L13.0832 14.1633C13.2678 16.3824 14.0899 18.5158 15.4304 20.2801L12.6525 21.3218C10.5747 19.1604 9.51434 16.1386 9.79678 13.1423L10.4146 11.4947ZM8.66384 22.8176C8.02325 22.09 7.49046 21.2792 7.07525 20.3997L8.64345 16.2178C9.03294 18.3568 9.99362 20.2703 11.3411 21.8136L8.66384 22.8176ZM6.46969 22.0146C6.74139 22.4636 7.04313 22.8931 7.37336 23.3015L5.76027 23.9064L6.46969 22.0146ZM16.7068 19.8015C15.733 18.6166 15.0339 17.2228 14.6588 15.7389L18.172 19.252L16.7068 19.8015Z" fill="#98A2B3"/>
<path d="M19.0888 15.6289C19.3424 15.8825 19.7535 15.8825 20.0071 15.6289C22.4501 13.1858 24.829 13.9411 24.8527 13.949C25.193 14.0624 25.5607 13.8785 25.6742 13.5383C25.7876 13.1982 25.6037 12.8303 25.2634 12.7169C25.1354 12.6743 22.0931 11.7062 19.0888 14.7105C18.8352 14.9641 18.8351 15.3753 19.0888 15.6289Z" fill="#98A2B3"/>
<path d="M14.0377 10.5778C14.2913 10.8314 14.7025 10.8315 14.9561 10.5778C17.9604 7.57354 16.9923 4.53127 16.9497 4.40321C16.8363 4.06298 16.4685 3.87904 16.1283 3.9925C15.7881 4.10593 15.6042 4.47369 15.7176 4.81392C15.7255 4.83768 16.4808 7.21651 14.0377 9.65954C13.7841 9.9131 13.7841 10.3243 14.0377 10.5778Z" fill="#98A2B3"/>
<path d="M16.3336 11.9554C16.08 12.209 16.08 12.6202 16.3336 12.8738C16.5849 13.1251 16.9932 13.1284 17.2481 12.8776C17.5836 12.7105 18.6248 13.3374 19.2035 12.759C19.776 12.1865 19.1678 11.1664 19.3197 10.8089C19.6776 10.6566 20.6973 11.2651 21.2698 10.6927C21.8424 10.1202 21.2341 9.10013 21.386 8.74258C21.7445 8.59024 22.7636 9.19883 23.3361 8.62639C23.9087 8.0539 23.3004 7.03382 23.4523 6.67628C23.8087 6.52471 24.8304 7.13192 25.4025 6.56004C25.9809 5.98154 25.3551 4.93843 25.521 4.60469C25.7708 4.35083 25.7695 3.94255 25.5172 3.6902C25.2636 3.4366 24.8525 3.4366 24.5989 3.6902C24.087 4.20204 24.1872 4.92462 24.2836 5.44121C23.767 5.3448 23.0444 5.24467 22.5326 5.75646C22.0208 6.2683 22.1209 6.99088 22.2173 7.50748C21.7007 7.41111 20.9781 7.31089 20.4663 7.82277C19.9545 8.3346 20.0546 9.05718 20.151 9.57378C19.6344 9.47737 18.9118 9.37719 18.4 9.88903C17.8882 10.4009 17.9883 11.1234 18.0847 11.64C17.5681 11.5437 16.8454 11.4436 16.3336 11.9554Z" fill="#98A2B3"/>
<path d="M20.0071 6.44515C20.2607 6.19155 20.2607 5.78041 20.0071 5.52681C19.7535 5.27321 19.3424 5.27321 19.0888 5.52681C18.8352 5.78041 18.8352 6.19155 19.0888 6.44515C19.3423 6.69876 19.7535 6.69876 20.0071 6.44515Z" fill="#98A2B3"/>
<path d="M24.1396 11.2273C24.4982 11.2273 24.789 10.9365 24.789 10.5779C24.789 10.2193 24.4982 9.92853 24.1396 9.92853C23.781 9.92853 23.4902 10.2193 23.4902 10.5779C23.4902 10.9365 23.781 11.2273 24.1396 11.2273Z" fill="#98A2B3"/>
<path d="M22.7621 16.5472C22.5085 16.8008 22.5085 17.2119 22.7621 17.4655C23.0157 17.7191 23.4268 17.7191 23.6804 17.4655C23.934 17.2119 23.934 16.8008 23.6804 16.5472C23.4269 16.2936 23.0157 16.2936 22.7621 16.5472Z" fill="#98A2B3"/>
<path d="M13.5785 7.36349C13.8321 7.10989 13.8321 6.69875 13.5785 6.44515C13.3249 6.19154 12.9138 6.19154 12.6602 6.44515C12.4066 6.6987 12.4066 7.10989 12.6602 7.36349C12.9138 7.61709 13.325 7.61709 13.5785 7.36349Z" fill="#98A2B3"/>
</svg>
