<svg width="28" height="28" viewBox="0 0 28 28" fill="none" xmlns="http://www.w3.org/2000/svg">
<path fill-rule="evenodd" clip-rule="evenodd" d="M7.95405 19.348V16.137H9.40421V19.348H18.3123V16.137H19.7625V19.348H22.1449C22.4881 19.348 22.7664 19.0698 22.7664 18.7265V16.6549C22.7664 14.5954 21.0968 12.9259 19.0374 12.9259H8.67913C6.61967 12.9259 4.95016 14.5954 4.95016 16.6549V18.7265C4.95016 19.0698 5.22841 19.348 5.57165 19.348H7.95405ZM5.57165 20.7982C4.42751 20.7982 3.5 19.8707 3.5 18.7265V16.6549C3.5 13.7945 5.81877 11.4758 8.67913 11.4758H19.0374C21.8977 11.4758 24.2165 13.7945 24.2165 16.6549V18.7265C24.2165 19.8707 23.289 20.7982 22.1449 20.7982H5.57165Z" fill="#98A2B3"/>
<path fill-rule="evenodd" clip-rule="evenodd" d="M13.8581 20.0731C14.2586 20.0731 14.5832 20.3977 14.5832 20.7982L13.8581 20.7982L13.1331 20.7982C13.1331 20.3977 13.4577 20.0731 13.8581 20.0731ZM13.8581 20.7982L13.1331 20.7982L13.1331 23.9057C13.1331 24.3061 13.4577 24.6308 13.8581 24.6308C14.2586 24.6308 14.5832 24.3061 14.5832 23.9057L14.5832 20.7993L13.8581 20.7982Z" fill="#98A2B3"/>
<path fill-rule="evenodd" clip-rule="evenodd" d="M8.98975 24.9415C8.98975 24.5411 9.31437 24.2164 9.71482 24.2164L18.0014 24.2164C18.4019 24.2164 18.7265 24.5411 18.7265 24.9415C18.7265 25.342 18.4019 25.6666 18.0014 25.6666L9.71482 25.6666C9.31437 25.6666 8.98975 25.342 8.98975 24.9415Z" fill="#98A2B3"/>
<path fill-rule="evenodd" clip-rule="evenodd" d="M4.84668 4.22502C4.84668 3.82457 5.17131 3.49994 5.57176 3.49994H11.7867C12.1872 3.49994 12.5118 3.82457 12.5118 4.22502V6.29667C12.5118 8.41333 10.7959 10.1292 8.67923 10.1292C6.56257 10.1292 4.84668 8.41333 4.84668 6.29667V4.22502ZM6.29684 4.95009V6.29667C6.29684 7.61243 7.36347 8.67907 8.67923 8.67907C9.995 8.67907 11.0616 7.61243 11.0616 6.29667V4.95009H6.29684Z" fill="#98A2B3"/>
<path fill-rule="evenodd" clip-rule="evenodd" d="M7.9541 12.5116V9.40411H9.40426V12.5116H7.9541Z" fill="#98A2B3"/>
<path fill-rule="evenodd" clip-rule="evenodd" d="M15.2048 4.22502C15.2048 3.82457 15.5295 3.49994 15.9299 3.49994H22.1449C22.5453 3.49994 22.8699 3.82457 22.8699 4.22502V6.29667C22.8699 8.41333 21.1541 10.1292 19.0374 10.1292C16.9207 10.1292 15.2048 8.41333 15.2048 6.29667V4.22502ZM16.655 4.95009V6.29667C16.655 7.61243 17.7216 8.67907 19.0374 8.67907C20.3532 8.67907 21.4198 7.61243 21.4198 6.29667V4.95009H16.655Z" fill="#98A2B3"/>
<path fill-rule="evenodd" clip-rule="evenodd" d="M18.3123 12.5116V9.40411H19.7624V12.5116H18.3123Z" fill="#98A2B3"/>
</svg>
