<svg width="28" height="28" viewBox="0 0 28 28" fill="none" xmlns="http://www.w3.org/2000/svg">
<path d="M22.7742 17.2327C22.5192 17.2327 22.3124 17.0259 22.3124 16.7709C22.3124 16.007 21.6909 15.3855 20.927 15.3855C20.672 15.3855 20.4652 15.1787 20.4652 14.9237C20.4652 14.6687 20.672 14.4619 20.927 14.4619C21.6909 14.4619 22.3124 13.8404 22.3124 13.0765C22.3124 12.8215 22.5192 12.6147 22.7742 12.6147C23.0293 12.6147 23.236 12.8215 23.236 13.0765C23.236 13.8404 23.8575 14.4619 24.6214 14.4619C24.8765 14.4619 25.0832 14.6687 25.0832 14.9237C25.0832 15.1787 24.8765 15.3855 24.6214 15.3855C23.8575 15.3855 23.236 16.007 23.236 16.7709C23.236 17.0259 23.0293 17.2327 22.7742 17.2327ZM22.311 14.9237C22.4864 15.0555 22.6425 15.2115 22.7742 15.3869C22.906 15.2115 23.0621 15.0554 23.2375 14.9237C23.0621 14.7919 22.906 14.6359 22.7742 14.4605C22.6425 14.6358 22.4864 14.7919 22.311 14.9237Z" fill="#98A2B3" stroke="#98A2B3" stroke-width="0.3"/>
<path d="M12.1528 4.764C12.4078 4.764 12.6146 4.55724 12.6146 4.3022C12.6146 4.04715 12.4078 3.84039 12.1528 3.84039C11.8977 3.84039 11.691 4.04715 11.691 4.3022C11.691 4.55724 11.8977 4.764 12.1528 4.764Z" fill="#98A2B3" stroke="#98A2B3" stroke-width="0.3"/>
<path d="M4.76393 5.22579C5.01897 5.22579 5.22573 5.01903 5.22573 4.76399C5.22573 4.50894 5.01897 4.30219 4.76393 4.30219C4.50888 4.30219 4.30212 4.50894 4.30212 4.76399C4.30212 5.01903 4.50888 5.22579 4.76393 5.22579Z" fill="#98A2B3" stroke="#98A2B3" stroke-width="0.3"/>
<path d="M18.618 14.0001C18.873 14.0001 19.0798 13.7933 19.0798 13.5383C19.0798 13.2832 18.873 13.0765 18.618 13.0765C18.3629 13.0765 18.1562 13.2832 18.1562 13.5383C18.1562 13.7933 18.3629 14.0001 18.618 14.0001Z" fill="#98A2B3" stroke="#98A2B3" stroke-width="0.3"/>
<path d="M12.1528 16.309C12.4078 16.309 12.6146 16.1023 12.6146 15.8472C12.6146 15.5922 12.4078 15.3854 12.1528 15.3854C11.8977 15.3854 11.691 15.5922 11.691 15.8472C11.691 16.1023 11.8977 16.309 12.1528 16.309Z" fill="#98A2B3" stroke="#98A2B3" stroke-width="0.3"/>
<path d="M4.30213 24.1597C4.55718 24.1597 4.76394 23.9529 4.76394 23.6979C4.76394 23.4428 4.55718 23.2361 4.30213 23.2361C4.04709 23.2361 3.84033 23.4428 3.84033 23.6979C3.84033 23.9529 4.04709 24.1597 4.30213 24.1597Z" fill="#98A2B3" stroke="#98A2B3" stroke-width="0.3"/>
<path d="M10.3056 24.6215C10.5606 24.6215 10.7674 24.4147 10.7674 24.1597C10.7674 23.9046 10.5606 23.6979 10.3056 23.6979C10.0505 23.6979 9.84375 23.9046 9.84375 24.1597C9.84375 24.4147 10.0505 24.6215 10.3056 24.6215Z" fill="#98A2B3" stroke="#98A2B3" stroke-width="0.3"/>
<path d="M8.92016 13.0765C8.83787 13.0765 8.75562 13.0545 8.68256 13.0107L6.61115 11.7679L4.53973 13.0107C4.39708 13.0963 4.21933 13.0985 4.0746 13.0166C3.92983 12.9346 3.84033 12.781 3.84033 12.6147V7.11427C3.84033 6.85926 4.04708 6.65247 4.30213 6.65247C4.55719 6.65247 4.76394 6.85926 4.76394 7.11427V11.799L6.37355 10.8333C6.5198 10.7455 6.70249 10.7455 6.84874 10.8333L8.45836 11.7991V7.11464C8.45836 6.85963 8.66511 6.65284 8.92016 6.65284C9.17521 6.65284 9.38196 6.85963 9.38196 7.11464V12.6147C9.38196 12.7811 9.29247 12.9346 9.14769 13.0166C9.07704 13.0566 8.99857 13.0765 8.92016 13.0765Z" fill="#98A2B3" stroke="#98A2B3" stroke-width="0.3"/>
<path d="M15.8472 14.4619C15.7649 14.4619 15.6826 14.4399 15.6096 14.3961L13.5381 13.1533L11.4667 14.3961C11.3241 14.4817 11.1463 14.4839 11.0016 14.402C10.8568 14.32 10.7673 14.1665 10.7673 14.0001V6.97374C10.7673 6.71873 10.9741 6.51193 11.2291 6.51193C11.4842 6.51193 11.6909 6.71873 11.6909 6.97374V13.1844L13.3006 12.2187C13.4468 12.1309 13.6295 12.1309 13.7757 12.2187L15.3854 13.1845V6.36116C15.3854 6.10615 15.5921 5.89935 15.8472 5.89935C16.1022 5.89935 16.309 6.10615 16.309 6.36116V14.0001C16.309 14.1665 16.2195 14.32 16.0747 14.402C16.004 14.442 15.9256 14.4619 15.8472 14.4619Z" fill="#98A2B3" stroke="#98A2B3" stroke-width="0.3"/>
<path d="M19.2066 11.2293C19.1639 11.2293 19.1209 11.2233 19.0789 11.2112C18.919 11.1652 18.7962 11.0367 18.7575 10.8749L17.5899 5.99611C17.5306 5.74808 17.6835 5.49884 17.9316 5.4395C18.1797 5.38025 18.4288 5.53306 18.4882 5.78114L19.4659 9.86671L20.8065 8.55283C20.9283 8.43346 21.1061 8.39093 21.2686 8.44219L23.0589 9.00683L21.997 4.57006C21.9377 4.32203 22.0907 4.0728 22.3387 4.01345C22.5868 3.9543 22.8359 4.10706 22.8953 4.3551L24.1469 9.5851C24.1856 9.74692 24.1343 9.91705 24.0126 10.0305C23.8909 10.1438 23.7175 10.1831 23.5589 10.133L21.2551 9.40643L19.5298 11.0972C19.4423 11.183 19.3258 11.2293 19.2066 11.2293Z" fill="#98A2B3" stroke="#98A2B3" stroke-width="0.3"/>
<path d="M3.35459 7.5342C3.09991 7.52099 2.90415 7.30385 2.91731 7.04912C2.93052 6.79444 3.14632 6.5979 3.40244 6.61184C10.8521 6.99805 16.1736 5.98402 19.3258 5.06531C22.7114 4.07858 24.3498 3.0047 24.3659 2.99394C24.5783 2.85272 24.865 2.91054 25.0061 3.12302C25.1473 3.33549 25.0895 3.62213 24.877 3.76321C24.8063 3.81027 23.1039 4.92622 19.5843 5.95197C15.4672 7.15192 9.96969 7.87723 3.35459 7.5342Z" fill="#98A2B3" stroke="#98A2B3" stroke-width="0.3"/>
<path d="M23.4602 25.0175L21.3888 23.7747L19.3174 25.0175C19.1747 25.1032 18.997 25.1054 18.8523 25.0234C18.7075 24.9414 18.618 24.7879 18.618 24.6215V19.1215C18.618 18.8665 18.8247 18.6597 19.0798 18.6597C19.3348 18.6597 19.5416 18.8665 19.5416 19.1215V23.8059L21.1512 22.8401C21.2975 22.7524 21.4801 22.7524 21.6264 22.8401L23.236 23.8059V19.1211C23.236 18.8661 23.4428 18.6593 23.6978 18.6593C23.9529 18.6593 24.1596 18.8661 24.1596 19.1211V24.6215C24.1596 24.7879 24.0701 24.9414 23.9253 25.0234C23.7806 25.1054 23.6029 25.1031 23.4602 25.0175Z" fill="#98A2B3" stroke="#98A2B3" stroke-width="0.3"/>
<path d="M16.5332 24.5557L14.4618 23.3129L12.3904 24.5557C12.2477 24.6413 12.07 24.6436 11.9253 24.5616C11.7805 24.4796 11.691 24.3261 11.691 24.1597V18.368C11.691 18.113 11.8977 17.9062 12.1528 17.9062C12.4078 17.9062 12.6146 18.113 12.6146 18.368V23.3441L14.2242 22.3783C14.3705 22.2906 14.5531 22.2906 14.6994 22.3783L16.309 23.3441V18.9806C16.309 18.7256 16.5158 18.5188 16.7708 18.5188C17.0259 18.5188 17.2326 18.7256 17.2326 18.9806V24.1597C17.2326 24.3261 17.1431 24.4796 16.9983 24.5615C16.8536 24.6436 16.6759 24.6413 16.5332 24.5557Z" fill="#98A2B3" stroke="#98A2B3" stroke-width="0.3"/>
<path d="M8.47005 23.1041L6.74481 21.4133L4.44101 22.1399C4.28234 22.19 4.10907 22.1507 3.98729 22.0374C3.86556 21.924 3.81425 21.7538 3.85295 21.592L5.10458 16.362C5.16392 16.1139 5.41334 15.961 5.66119 16.0204C5.90927 16.0797 6.06222 16.3289 6.00283 16.577L4.94105 21.0137L6.73123 20.4491C6.89388 20.3978 7.07153 20.4403 7.19336 20.5597L8.53397 21.8736L9.5117 17.7881C9.57108 17.54 9.82023 17.3869 10.0683 17.4464C10.3163 17.5058 10.4693 17.755 10.4099 18.003L9.24237 22.8818C9.20363 23.0436 9.08088 23.1721 8.921 23.2181C8.76117 23.2642 8.58883 23.2206 8.47005 23.1041Z" fill="#98A2B3" stroke="#98A2B3" stroke-width="0.3"/>
<path d="M8.4157 17.9589C4.89617 16.9331 3.19373 15.8172 3.12299 15.7702C2.91056 15.629 2.85274 15.3424 2.99391 15.13C3.13495 14.9178 3.42113 14.8598 3.63355 15.0005C3.65004 15.0114 5.32371 16.102 8.72793 17.0878C11.8726 17.9986 17.1786 19.0033 24.5975 18.6187C24.8524 18.6046 25.0695 18.8012 25.0827 19.056C25.0959 19.3107 24.9001 19.5279 24.6454 19.5411C18.0425 19.8836 12.5429 19.1619 8.4157 17.9589Z" fill="#98A2B3" stroke="#98A2B3" stroke-width="0.3"/>
</svg>
