<svg width="28" height="28" viewBox="0 0 28 28" fill="none" xmlns="http://www.w3.org/2000/svg">
<path d="M19.0556 13.6111C18.7335 13.6111 18.4722 13.3498 18.4722 13.0278C18.4722 12.7057 18.7335 12.4444 19.0556 12.4444C19.3772 12.4444 19.6389 12.1828 19.6389 11.8611V5.25C19.6389 4.92833 19.3772 4.66667 19.0556 4.66667H8.94446C8.62279 4.66667 8.36112 4.92833 8.36112 5.25V11.8611C8.36112 12.1828 8.62279 12.4444 8.94446 12.4444H11.165C11.4872 12.4444 11.7483 12.7057 11.7483 13.0278C11.7483 13.3498 11.4872 13.6111 11.165 13.6111H8.94446C7.97945 13.6111 7.19446 12.8261 7.19446 11.8611V5.25C7.19446 4.28499 7.97945 3.5 8.94446 3.5H19.0556C20.0206 3.5 20.8056 4.28499 20.8056 5.25V11.8611C20.8056 12.8261 20.0206 13.6111 19.0556 13.6111Z" fill="#98A2B3"/>
<path d="M19.8333 16.3334H17.111C16.789 16.3334 16.5277 16.0721 16.5277 15.75C16.5277 15.428 16.789 15.1667 17.111 15.1667H19.8333C20.1553 15.1667 20.4166 15.428 20.4166 15.75C20.4166 16.0721 20.1553 16.3334 19.8333 16.3334Z" fill="#98A2B3"/>
<path d="M10.8888 16.3334H8.16659C7.84435 16.3334 7.58325 16.0721 7.58325 15.75C7.58325 15.428 7.84435 15.1667 8.16659 15.1667H10.8888C11.211 15.1667 11.4721 15.428 11.4721 15.75C11.4721 16.0721 11.211 16.3334 10.8888 16.3334Z" fill="#98A2B3"/>
<path d="M8.55551 21.3889H4.66663C3.70162 21.3889 2.91663 20.6039 2.91663 19.6389V12.5425C2.91663 11.6306 3.65851 10.8889 4.57035 10.8889C5.4258 10.8889 6.13331 11.5311 6.21629 12.3826L6.75158 17.8889H6.99996C8.17934 17.8889 9.13884 18.8486 9.13884 20.0278V20.8056C9.13884 21.1276 8.87775 21.3889 8.55551 21.3889ZM4.57035 12.0556C4.30185 12.0556 4.08329 12.274 4.08329 12.5425V19.6389C4.08329 19.9606 4.34496 20.2222 4.66663 20.2222H7.97218V20.0278C7.97218 19.4916 7.53601 19.0556 6.99996 19.0556H6.22218C5.92197 19.0556 5.67056 18.8277 5.64151 18.5288L5.05495 12.4957C5.03064 12.2447 4.82233 12.0556 4.57035 12.0556Z" fill="#98A2B3"/>
<path d="M23.3333 21.3889H19.4444C19.1224 21.3889 18.8611 21.1276 18.8611 20.8056V20.0278C18.8611 18.8486 19.8208 17.8889 21 17.8889H21.2483L21.7838 12.3826C21.8666 11.5311 22.5741 10.8889 23.4298 10.8889C24.3416 10.8889 25.0833 11.6306 25.0833 12.5425V19.6389C25.0833 20.6039 24.2983 21.3889 23.3333 21.3889ZM20.0278 20.2222H23.3333C23.655 20.2222 23.9166 19.9606 23.9166 19.6389V12.5425C23.9166 12.274 23.6983 12.0556 23.4298 12.0556C23.1776 12.0556 22.9695 12.2447 22.9452 12.4954L22.3584 18.5288C22.3292 18.8277 22.0782 19.0556 21.7778 19.0556H21C20.4637 19.0556 20.0278 19.4916 20.0278 20.0278L20.0278 20.2222Z" fill="#98A2B3"/>
<path d="M24.5 25.6667H3.49996C3.17772 25.6667 2.91663 25.4054 2.91663 25.0833V24.3055C2.91663 23.3405 3.70162 22.5555 4.66663 22.5555H6.99996C7.96497 22.5555 8.74996 23.3405 8.74996 24.3055V24.5H19.25V24.3055C19.25 23.3405 20.035 22.5555 21 22.5555H23.3333C24.2983 22.5555 25.0833 23.3405 25.0833 24.3055V25.0833C25.0833 25.4054 24.822 25.6667 24.5 25.6667ZM20.4166 24.5H23.9166V24.3055C23.9166 23.9839 23.655 23.7222 23.3333 23.7222H21C20.6783 23.7222 20.4166 23.9839 20.4166 24.3055V24.5ZM4.08329 24.5H7.58329V24.3055C7.58329 23.9839 7.32163 23.7222 6.99996 23.7222H4.66663C4.34496 23.7222 4.08329 23.9839 4.08329 24.3055V24.5Z" fill="#98A2B3"/>
<path d="M14 25.6666C13.6777 25.6666 13.4166 25.4053 13.4166 25.0833V20.8055C13.4166 20.4835 13.6777 20.2222 14 20.2222C14.3222 20.2222 14.5833 20.4835 14.5833 20.8055V25.0833C14.5833 25.4053 14.3222 25.6666 14 25.6666Z" fill="#98A2B3"/>
<path d="M16.3334 25.6667C16.0113 25.6667 15.75 25.4054 15.75 25.0833V24.3055C15.75 23.9839 15.4884 23.7222 15.1667 23.7222H12.8334C12.5117 23.7222 12.25 23.9839 12.25 24.3055V25.0833C12.25 25.4054 11.9889 25.6667 11.6667 25.6667C11.3445 25.6667 11.0834 25.4054 11.0834 25.0833V24.3055C11.0834 23.3405 11.8684 22.5555 12.8334 22.5555H15.1667C16.1317 22.5555 16.9167 23.3405 16.9167 24.3055V25.0833C16.9167 25.4054 16.6554 25.6667 16.3334 25.6667Z" fill="#98A2B3"/>
<path d="M5.83333 25.6666C5.5111 25.6666 5.25 25.4053 5.25 25.0833V20.8055C5.25 20.4835 5.5111 20.2222 5.83333 20.2222C6.15557 20.2222 6.41667 20.4835 6.41667 20.8055V25.0833C6.41667 25.4053 6.15557 25.6666 5.83333 25.6666Z" fill="#98A2B3"/>
<path d="M22.1667 25.6666C21.8447 25.6666 21.5834 25.4053 21.5834 25.0833V20.8055C21.5834 20.4835 21.8447 20.2222 22.1667 20.2222C22.4888 20.2222 22.75 20.4835 22.75 20.8055V25.0833C22.75 25.4053 22.4888 25.6666 22.1667 25.6666Z" fill="#98A2B3"/>
<path d="M16.4127 21.3889H11.5875C11.1236 21.3889 10.6929 21.1949 10.3743 20.8424C10.0378 20.4703 9.87448 19.964 9.92613 19.454L10.5959 12.8429C10.6862 11.9508 11.4004 11.2778 12.2572 11.2778H15.7428C16.5995 11.2778 17.3135 11.9508 17.4039 12.8429L18.0738 19.454C18.1255 19.964 17.9622 20.4703 17.6257 20.8424C17.307 21.1949 16.8764 21.3889 16.4127 21.3889ZM12.2572 12.4445C12.0016 12.4445 11.7863 12.6663 11.7564 12.9606L11.0867 19.5717C11.0683 19.754 11.1241 19.9321 11.24 20.0601C11.2946 20.1209 11.4124 20.2223 11.5874 20.2223H16.4127C16.5874 20.2223 16.7055 20.1209 16.7602 20.0601C16.8756 19.9321 16.9314 19.754 16.9132 19.5717L16.2433 12.9606C16.2133 12.6663 15.9983 12.4445 15.7427 12.4445H12.2572Z" fill="#98A2B3"/>
</svg>
