<svg width="29" height="28" viewBox="0 0 29 28" fill="none" xmlns="http://www.w3.org/2000/svg">
<path d="M12.7197 15.9197C12.3432 15.8252 11.9617 16.054 11.8673 16.4304C11.7396 16.9401 11.009 16.9402 10.8813 16.4304C10.787 16.054 10.4054 15.8252 10.0289 15.9196C9.65242 16.014 9.42372 16.3956 9.51808 16.7721C9.60212 17.1074 9.77617 17.4142 10.021 17.6586C11.0662 18.7048 12.8681 18.218 13.2305 16.7721C13.3248 16.3957 13.0962 16.014 12.7197 15.9197Z" fill="#98A2B3"/>
<path d="M17.6242 18.2195C18.5035 18.2195 19.2668 17.6243 19.4804 16.7722C19.5748 16.3957 19.3461 16.014 18.9697 15.9197C18.5931 15.8252 18.2116 16.054 18.1173 16.4304C17.9895 16.9399 17.259 16.9404 17.1312 16.4304C17.0369 16.054 16.6554 15.8252 16.2788 15.9196C15.1437 16.2041 15.9961 18.2195 17.6242 18.2195Z" fill="#98A2B3"/>
<path d="M25.0279 17.9268C24.6398 17.9268 24.3252 18.2414 24.3252 18.6295C24.3252 19.0176 24.6398 19.3322 25.0279 19.3322C25.0602 19.3322 25.0864 19.3584 25.0864 19.3907V20.029C25.0864 20.3163 24.8526 20.5501 24.5653 20.5501H22.4261C22.4262 20.5501 22.4262 20.55 22.4262 20.5499C22.7968 19.5976 22.9996 18.5623 22.9996 17.4806C22.9996 14.6028 22.4076 14.1926 15.8379 3.11361C15.2346 2.09558 13.7625 2.09511 13.1574 3.11361C6.57932 14.2138 5.99573 14.6062 5.99573 17.4806C5.99573 22.1689 9.80989 25.9826 14.4977 25.9826C17.5449 25.9826 20.223 24.3712 21.7239 21.9555H24.5653C25.6276 21.9555 26.4918 21.0913 26.4918 20.029V19.3908C26.4918 18.5835 25.8351 17.9268 25.0279 17.9268ZM9.34939 12.2958C11.1635 9.23486 10.6838 10.0443 11.3454 8.92779H17.6519C18.3195 10.0533 17.8921 9.33241 19.6488 12.2958C19.1551 12.2958 9.8495 12.2958 9.34939 12.2958ZM14.3665 3.83033C14.4256 3.73025 14.5688 3.72922 14.6293 3.83033L16.8184 7.52219L16.8185 7.52234H12.1782L12.1783 7.52219L14.3665 3.83033ZM14.4977 24.5772C8.91092 24.5772 5.52909 18.3915 8.4935 13.7011H20.5019C21.7973 15.7507 21.957 18.3453 20.8958 20.5499C20.8958 20.5499 20.8958 20.55 20.8958 20.5501H15.2021V20.1758C15.2021 19.7877 14.8875 19.4731 14.4994 19.4731C14.1113 19.4731 13.7967 19.7877 13.7967 20.1758V22.3307C13.7967 22.7188 14.1113 23.0334 14.4994 23.0334C14.8875 23.0334 15.2021 22.7188 15.2021 22.3307V21.9554H20.0014C18.6995 23.5542 16.7157 24.5772 14.4977 24.5772Z" fill="#98A2B3"/>
<path d="M21.0657 6.10572C21.4538 6.10572 21.7684 5.7911 21.7684 5.40302C21.7684 5.01494 21.4538 4.70032 21.0657 4.70032C20.6777 4.70032 20.363 5.01489 20.363 5.40302C20.363 5.79114 20.6776 6.10572 21.0657 6.10572Z" fill="#98A2B3"/>
<path d="M7.13703 4.0918C7.5251 4.0918 7.83973 3.77718 7.83973 3.3891C7.83973 3.00103 7.52515 2.6864 7.13703 2.6864C6.7489 2.6864 6.43433 3.00103 6.43433 3.38915C6.43433 3.77723 6.74895 4.0918 7.13703 4.0918Z" fill="#98A2B3"/>
<path d="M3.20954 25.9849C3.59763 25.9849 3.91224 25.6703 3.91224 25.2822C3.91224 24.8941 3.59763 24.5795 3.20954 24.5795C2.82145 24.5795 2.50684 24.8941 2.50684 25.2822C2.50684 25.6703 2.82145 25.9849 3.20954 25.9849Z" fill="#98A2B3"/>
<path d="M4.75531 21.4882C4.36724 21.4882 4.05261 21.8028 4.05261 22.1909C4.05261 22.579 4.36724 22.8936 4.75531 22.8936C5.14339 22.8936 5.45797 22.579 5.45797 22.1909C5.45797 21.8028 5.14344 21.4882 4.75531 21.4882Z" fill="#98A2B3"/>
<path d="M23.5405 24.5945C23.1524 24.5945 22.8378 24.9092 22.8378 25.2972C22.8378 25.6853 23.1523 25.9999 23.5405 25.9999C23.9285 25.9999 24.2432 25.6854 24.2432 25.2972C24.2431 24.9091 23.9285 24.5945 23.5405 24.5945Z" fill="#98A2B3"/>
<path d="M25.7857 15.7151C26.1738 15.7151 26.4884 15.4005 26.4884 15.0124C26.4884 14.6243 26.1738 14.3097 25.7857 14.3097C25.3976 14.3097 25.083 14.6243 25.083 15.0124C25.083 15.4005 25.3976 15.7151 25.7857 15.7151Z" fill="#98A2B3"/>
<path d="M23.5878 10.9518C23.5878 11.3399 23.9023 11.6545 24.2905 11.6545C24.6786 11.6545 24.9932 11.34 24.9932 10.9518C24.9932 10.5638 24.6786 10.2491 24.2905 10.2491C23.9023 10.2491 23.5878 10.5638 23.5878 10.9518Z" fill="#98A2B3"/>
<path d="M4.70917 14.6528C5.09725 14.6528 5.41187 14.3383 5.41187 13.9501C5.41187 13.5621 5.0973 13.2474 4.70917 13.2474C4.32105 13.2474 4.00647 13.5621 4.00647 13.9501C4.00647 14.3382 4.32109 14.6528 4.70917 14.6528Z" fill="#98A2B3"/>
<path d="M24.6468 7.24259L26.0774 6.04082C26.6322 5.57469 26.6314 4.72101 26.0774 4.25558L25.2901 3.59423L25.7147 3.24623C26.0149 3.00028 26.0589 2.55754 25.8129 2.25736C25.5669 1.95717 25.1242 1.9132 24.824 2.1592C24.8192 2.16318 24.1698 2.69521 24.165 2.69925C23.6101 3.16542 23.611 4.01915 24.165 4.48452L24.9551 5.14822L23.7429 6.16653C23.4458 6.41614 23.4072 6.85939 23.6568 7.15653C23.9066 7.45395 24.3499 7.49197 24.6468 7.24259Z" fill="#98A2B3"/>
<path d="M5.09465 6.81277L4.30738 6.15141L4.73202 5.80341C5.03221 5.55746 5.07618 5.11473 4.83018 4.81454C4.58418 4.51431 4.14149 4.47043 3.84131 4.71639C3.83338 4.72285 3.19012 5.24992 3.18234 5.25643C2.62743 5.72251 2.62818 6.57624 3.18229 7.04175L3.97237 7.70546L2.76014 8.72372C2.463 8.97333 2.42442 9.41658 2.67407 9.71372C2.92387 10.0111 3.36712 10.0492 3.66407 9.79978L5.09469 8.598C5.64951 8.13197 5.64871 7.27824 5.09465 6.81277Z" fill="#98A2B3"/>
</svg>
