<svg width="29" height="28" viewBox="0 0 29 28" fill="none" xmlns="http://www.w3.org/2000/svg">
<path d="M18.5064 4.82864V4.14943C18.5064 3.79077 18.2156 3.5 17.8569 3.5C17.4983 3.5 17.2075 3.79077 17.2075 4.14943V4.82868C13.5718 5.1579 10.7134 8.22233 10.7134 11.9424C10.7134 12.1819 10.8452 12.402 11.0564 12.515C11.2675 12.628 11.5238 12.6156 11.723 12.4827C12.6877 11.8396 13.9344 11.8396 14.899 12.4827C15.093 12.612 15.3413 12.6275 15.5497 12.5233C16.6487 11.9737 16.793 11.879 17.2075 11.7832V19.1292H15.9087V18.4798C15.9087 17.4055 15.0347 16.5315 13.9605 16.5315H7.70435L6.3406 14.7132C5.69671 13.8541 4.47328 13.6794 3.61335 14.3236C2.75152 14.9693 2.57747 16.1897 3.22378 17.0512L7.11978 22.2458C7.28967 22.4729 7.50692 22.6567 7.75184 22.7891L6.79701 24.7305C6.63873 25.0523 6.77134 25.4416 7.0932 25.5999C7.4154 25.7583 7.80441 25.6252 7.96252 25.3037L9.08287 23.0255H21.3491L22.4694 25.3037C22.6277 25.6255 23.0169 25.7581 23.3387 25.5999C23.6606 25.4416 23.7932 25.0523 23.6349 24.7305L22.6807 22.7904C23.2883 22.4602 23.7016 21.8161 23.7016 21.0774C23.7016 20.0031 22.8276 19.1291 21.7534 19.1291H18.5063V11.7831C19.3009 11.9667 20.0612 12.5917 20.4545 12.5917C20.5806 12.5917 20.7062 12.555 20.8148 12.4827C21.7794 11.8395 23.0261 11.8395 23.9908 12.4827C24.19 12.6155 24.4463 12.6278 24.6574 12.5149C24.8686 12.4019 25.0004 12.1818 25.0004 11.9423C25.0004 8.22228 22.1421 5.15786 18.5064 4.82864ZM14.6157 10.9116C13.8026 10.642 12.9273 10.6311 12.1092 10.8789C12.4698 8.92514 13.8055 7.30871 15.5909 6.5549C14.929 7.83055 14.6548 9.47667 14.6157 10.9116ZM13.9605 17.8303C14.3186 17.8303 14.6099 18.1217 14.6099 18.4798V19.1292H9.65272L8.67858 17.8304H13.9605V17.8303ZM21.7534 20.428C22.1114 20.428 22.4028 20.7193 22.4028 21.0774C22.4028 21.4355 22.1115 21.7268 21.7534 21.7268H8.67862C8.47509 21.7268 8.28113 21.63 8.15934 21.4672L4.26278 16.2718C4.0486 15.9864 4.10337 15.5793 4.39206 15.3631C4.67906 15.1481 5.08686 15.2061 5.30138 15.4924L9.00325 20.428H21.7534V20.428ZM15.9158 10.888C16.0094 7.92238 17.0893 6.09766 17.8569 6.09766C18.6246 6.09766 19.7044 7.92221 19.7981 10.888C18.4819 10.23 17.14 10.2759 15.9158 10.888ZM21.0982 10.9116C21.059 9.47745 20.7847 7.83025 20.123 6.5549C21.9084 7.30876 23.244 8.92518 23.6047 10.8789C22.7865 10.6311 21.9113 10.642 21.0982 10.9116Z" fill="#98A2B3"/>
</svg>
