<svg width="29" height="28" viewBox="0 0 29 28" fill="none" xmlns="http://www.w3.org/2000/svg">
<mask id="mask0_3209_111038" style="mask-type:luminance" maskUnits="userSpaceOnUse" x="3" y="2" width="23" height="24">
<path d="M3.41663 2.91664H25.5833V25.0833H3.41663V2.91664Z" fill="white"/>
</mask>
<g mask="url(#mask0_3209_111038)">
<path fill-rule="evenodd" clip-rule="evenodd" d="M3.36597 24.4339C3.36597 24.8205 3.67937 25.1339 4.06597 25.1339H10.6933C11.0799 25.1339 11.3933 24.8205 11.3933 24.4339V23.7104C11.3933 21.4937 9.59636 19.6967 7.37967 19.6967C5.16298 19.6967 3.36597 21.4937 3.36597 23.7104V24.4339ZM4.76597 23.7339V23.7104C4.76597 22.2669 5.93617 21.0967 7.37967 21.0967C8.82315 21.0967 9.99332 22.2669 9.99332 23.7104V23.7339H4.76597Z" fill="#98A2B3"/>
<path fill-rule="evenodd" clip-rule="evenodd" d="M4.73145 18.4485C4.73145 19.9111 5.9171 21.0967 7.37969 21.0967C8.84228 21.0967 10.0279 19.9111 10.0279 18.4485C10.0279 16.9859 8.84228 15.8003 7.37969 15.8003C5.9171 15.8003 4.73145 16.9859 4.73145 18.4485ZM7.37969 19.6967C6.69029 19.6967 6.13145 19.1379 6.13145 18.4485C6.13145 17.7591 6.69029 17.2003 7.37969 17.2003C8.06908 17.2003 8.62793 17.7591 8.62793 18.4485C8.62793 19.1379 8.06908 19.6967 7.37969 19.6967Z" fill="#98A2B3"/>
<path fill-rule="evenodd" clip-rule="evenodd" d="M17.6064 24.4339C17.6064 24.8205 17.9198 25.1339 18.3064 25.1339H24.9338C25.3204 25.1339 25.6338 24.8205 25.6338 24.4339V23.7104C25.6338 21.4937 23.8368 19.6967 21.6201 19.6967C19.4034 19.6967 17.6064 21.4937 17.6064 23.7104V24.4339ZM19.0064 23.7339V23.7104C19.0064 22.2669 20.1766 21.0967 21.6201 21.0967C23.0636 21.0967 24.2338 22.2669 24.2338 23.7104V23.7339H19.0064Z" fill="#98A2B3"/>
<path fill-rule="evenodd" clip-rule="evenodd" d="M18.9719 18.4485C18.9719 19.9111 20.1576 21.0967 21.6202 21.0967C23.0828 21.0967 24.2684 19.9111 24.2684 18.4485C24.2684 16.9859 23.0828 15.8003 21.6202 15.8003C20.1576 15.8003 18.9719 16.9859 18.9719 18.4485ZM21.6202 19.6967C20.9308 19.6967 20.3719 19.1379 20.3719 18.4485C20.3719 17.7591 20.9308 17.2003 21.6202 17.2003C22.3096 17.2003 22.8684 17.7591 22.8684 18.4485C22.8684 19.1379 22.3096 19.6967 21.6202 19.6967Z" fill="#98A2B3"/>
<path fill-rule="evenodd" clip-rule="evenodd" d="M10.4862 11.4998C10.4862 11.8864 10.7996 12.1998 11.1862 12.1998H17.8136C18.2002 12.1998 18.5136 11.8864 18.5136 11.4998V10.7762C18.5136 8.55958 16.7166 6.76258 14.4999 6.76258C12.2832 6.76258 10.4862 8.55958 10.4862 10.7762V11.4998ZM11.8862 10.7998V10.7762C11.8862 9.33279 13.0564 8.16258 14.4999 8.16258C15.9434 8.16258 17.1136 9.33279 17.1136 10.7762V10.7998H11.8862Z" fill="#98A2B3"/>
<path fill-rule="evenodd" clip-rule="evenodd" d="M11.8517 5.51429C11.8517 6.97689 13.0373 8.16254 14.4999 8.16254C15.9625 8.16254 17.1482 6.97689 17.1482 5.51429C17.1482 4.0517 15.9625 2.86605 14.4999 2.86605C13.0373 2.86605 11.8517 4.0517 11.8517 5.51429ZM14.4999 6.76254C13.8105 6.76254 13.2517 6.20369 13.2517 5.51429C13.2517 4.8249 13.8105 4.26605 14.4999 4.26605C15.1893 4.26605 15.7482 4.8249 15.7482 5.51429C15.7482 6.20369 15.1893 6.76254 14.4999 6.76254Z" fill="#98A2B3"/>
<path fill-rule="evenodd" clip-rule="evenodd" d="M14.4644 19.6967C13.5646 19.6967 12.7041 19.5588 11.9072 19.3068C11.5386 19.1902 11.1453 19.3945 11.0287 19.7631C10.9122 20.1317 11.1165 20.525 11.4851 20.6416C12.4183 20.9367 13.4212 21.0967 14.4644 21.0967C15.5452 21.0967 16.5831 20.9251 17.5446 20.6094C17.9119 20.4887 18.1118 20.0932 17.9912 19.7259C17.8706 19.3586 17.475 19.1586 17.1077 19.2793C16.2872 19.5487 15.3968 19.6967 14.4644 19.6967Z" fill="#98A2B3"/>
<path fill-rule="evenodd" clip-rule="evenodd" d="M6.17877 14.4168C6.55912 14.486 6.92358 14.2338 6.99281 13.8535C7.14745 13.0039 7.44232 12.1507 7.88723 11.3313L7.88724 11.3313C8.31658 10.5405 8.84839 9.85005 9.45006 9.27008C9.7284 9.00178 9.73654 8.55863 9.46823 8.2803C9.19993 8.00196 8.75679 7.99382 8.47845 8.26212C7.77376 8.94141 7.15464 9.74646 6.65688 10.6633C6.14118 11.6131 5.79667 12.6071 5.61544 13.6027C5.54621 13.9831 5.79842 14.3476 6.17877 14.4168Z" fill="#98A2B3"/>
<path fill-rule="evenodd" clip-rule="evenodd" d="M23.2353 14.4168C22.8549 14.486 22.4905 14.2338 22.4213 13.8535C22.2666 13.0039 21.9717 12.1507 21.5268 11.3313L21.5268 11.3313C21.0975 10.5405 20.5657 9.85005 19.964 9.27008C19.6857 9.00178 19.6775 8.55863 19.9458 8.2803C20.2141 8.00196 20.6573 7.99382 20.9356 8.26212C21.6403 8.94141 22.2594 9.74646 22.7572 10.6633C23.2729 11.6131 23.6174 12.6071 23.7986 13.6027C23.8679 13.9831 23.6156 14.3476 23.2353 14.4168Z" fill="#98A2B3"/>
</g>
</svg>
