<svg width="28" height="28" viewBox="0 0 28 28" fill="none" xmlns="http://www.w3.org/2000/svg">
<path d="M26.0834 24.0834H24.5V18.5417C24.5 17.6685 23.7896 16.9584 22.9167 16.9584H22.125V13C22.125 12.1268 21.4146 11.4167 20.5417 11.4167H7.87504C7.0022 11.4167 6.29171 12.1268 6.29171 13V16.9584H5.50004C4.6272 16.9584 3.91671 17.6685 3.91671 18.5417V24.0834H2.33337V25.6667H26.0834V24.0834ZM7.87504 13H20.5417V16.9584H7.87504V13ZM5.50004 18.5417H22.9167V24.0834H5.50004V18.5417Z" fill="#98A2B3"/>
<path d="M13.3138 10.0571L14.2083 10.6683L15.1028 10.0572C16.7472 8.9431 18.1667 7.98096 18.1667 5.91636C18.1667 4.5839 17.1013 3.5 15.7917 3.5C15.2806 3.5 14.7054 3.67163 14.2083 3.95845C13.7112 3.67163 13.136 3.5 12.625 3.5C11.3153 3.5 10.25 4.5839 10.25 5.91636C10.25 7.98096 11.6694 8.9431 13.3138 10.0571ZM12.625 5.08333C12.9513 5.08333 13.3973 5.26733 13.6865 5.52053L14.2083 5.97782L14.7302 5.52052C15.0193 5.26733 15.4654 5.08333 15.7917 5.08333C16.2285 5.08333 16.5833 5.45713 16.5833 5.91636C16.5833 7.08918 15.8141 7.66244 14.2145 8.74634L14.2083 8.75059L14.2022 8.74633C12.6026 7.66243 11.8333 7.08917 11.8333 5.91636C11.8333 5.45713 12.1882 5.08333 12.625 5.08333Z" fill="#98A2B3"/>
</svg>
